G04 #@! TF.GenerationSoftware,KiCad,Pcbnew,8.0.3*
G04 #@! TF.CreationDate,2024-06-22T11:38:29+02:00*
G04 #@! TF.ProjectId,z502rc2014,7a353032-7263-4323-9031-342e6b696361,rev?*
G04 #@! TF.SameCoordinates,Original*
G04 #@! TF.FileFunction,Legend,Top*
G04 #@! TF.FilePolarity,Positive*
%FSLAX46Y46*%
G04 Gerber Fmt 4.6, Leading zero omitted, Abs format (unit mm)*
G04 Created by KiCad (PCBNEW 8.0.3) date 2024-06-22 11:38:29*
%MOMM*%
%LPD*%
G01*
G04 APERTURE LIST*
%ADD10C,0.150000*%
%ADD11C,0.120000*%
%ADD12C,0.100000*%
%ADD13C,1.600000*%
%ADD14R,1.524000X4.500000*%
G04 APERTURE END LIST*
D10*
X254162112Y-99930009D02*
X254304969Y-99977628D01*
X254304969Y-99977628D02*
X254352588Y-100025247D01*
X254352588Y-100025247D02*
X254400207Y-100120485D01*
X254400207Y-100120485D02*
X254400207Y-100263342D01*
X254400207Y-100263342D02*
X254352588Y-100358580D01*
X254352588Y-100358580D02*
X254304969Y-100406200D01*
X254304969Y-100406200D02*
X254209731Y-100453819D01*
X254209731Y-100453819D02*
X253828779Y-100453819D01*
X253828779Y-100453819D02*
X253828779Y-99453819D01*
X253828779Y-99453819D02*
X254162112Y-99453819D01*
X254162112Y-99453819D02*
X254257350Y-99501438D01*
X254257350Y-99501438D02*
X254304969Y-99549057D01*
X254304969Y-99549057D02*
X254352588Y-99644295D01*
X254352588Y-99644295D02*
X254352588Y-99739533D01*
X254352588Y-99739533D02*
X254304969Y-99834771D01*
X254304969Y-99834771D02*
X254257350Y-99882390D01*
X254257350Y-99882390D02*
X254162112Y-99930009D01*
X254162112Y-99930009D02*
X253828779Y-99930009D01*
X255257350Y-99787152D02*
X255257350Y-100453819D01*
X254828779Y-99787152D02*
X254828779Y-100310961D01*
X254828779Y-100310961D02*
X254876398Y-100406200D01*
X254876398Y-100406200D02*
X254971636Y-100453819D01*
X254971636Y-100453819D02*
X255114493Y-100453819D01*
X255114493Y-100453819D02*
X255209731Y-100406200D01*
X255209731Y-100406200D02*
X255257350Y-100358580D01*
X255685922Y-100406200D02*
X255781160Y-100453819D01*
X255781160Y-100453819D02*
X255971636Y-100453819D01*
X255971636Y-100453819D02*
X256066874Y-100406200D01*
X256066874Y-100406200D02*
X256114493Y-100310961D01*
X256114493Y-100310961D02*
X256114493Y-100263342D01*
X256114493Y-100263342D02*
X256066874Y-100168104D01*
X256066874Y-100168104D02*
X255971636Y-100120485D01*
X255971636Y-100120485D02*
X255828779Y-100120485D01*
X255828779Y-100120485D02*
X255733541Y-100072866D01*
X255733541Y-100072866D02*
X255685922Y-99977628D01*
X255685922Y-99977628D02*
X255685922Y-99930009D01*
X255685922Y-99930009D02*
X255733541Y-99834771D01*
X255733541Y-99834771D02*
X255828779Y-99787152D01*
X255828779Y-99787152D02*
X255971636Y-99787152D01*
X255971636Y-99787152D02*
X256066874Y-99834771D01*
X178454207Y-105701875D02*
X178120874Y-105225684D01*
X177882779Y-105701875D02*
X177882779Y-104701875D01*
X177882779Y-104701875D02*
X178263731Y-104701875D01*
X178263731Y-104701875D02*
X178358969Y-104749494D01*
X178358969Y-104749494D02*
X178406588Y-104797113D01*
X178406588Y-104797113D02*
X178454207Y-104892351D01*
X178454207Y-104892351D02*
X178454207Y-105035208D01*
X178454207Y-105035208D02*
X178406588Y-105130446D01*
X178406588Y-105130446D02*
X178358969Y-105178065D01*
X178358969Y-105178065D02*
X178263731Y-105225684D01*
X178263731Y-105225684D02*
X177882779Y-105225684D01*
X179454207Y-105606636D02*
X179406588Y-105654256D01*
X179406588Y-105654256D02*
X179263731Y-105701875D01*
X179263731Y-105701875D02*
X179168493Y-105701875D01*
X179168493Y-105701875D02*
X179025636Y-105654256D01*
X179025636Y-105654256D02*
X178930398Y-105559017D01*
X178930398Y-105559017D02*
X178882779Y-105463779D01*
X178882779Y-105463779D02*
X178835160Y-105273303D01*
X178835160Y-105273303D02*
X178835160Y-105130446D01*
X178835160Y-105130446D02*
X178882779Y-104939970D01*
X178882779Y-104939970D02*
X178930398Y-104844732D01*
X178930398Y-104844732D02*
X179025636Y-104749494D01*
X179025636Y-104749494D02*
X179168493Y-104701875D01*
X179168493Y-104701875D02*
X179263731Y-104701875D01*
X179263731Y-104701875D02*
X179406588Y-104749494D01*
X179406588Y-104749494D02*
X179454207Y-104797113D01*
X179835160Y-104797113D02*
X179882779Y-104749494D01*
X179882779Y-104749494D02*
X179978017Y-104701875D01*
X179978017Y-104701875D02*
X180216112Y-104701875D01*
X180216112Y-104701875D02*
X180311350Y-104749494D01*
X180311350Y-104749494D02*
X180358969Y-104797113D01*
X180358969Y-104797113D02*
X180406588Y-104892351D01*
X180406588Y-104892351D02*
X180406588Y-104987589D01*
X180406588Y-104987589D02*
X180358969Y-105130446D01*
X180358969Y-105130446D02*
X179787541Y-105701875D01*
X179787541Y-105701875D02*
X180406588Y-105701875D01*
X181025636Y-104701875D02*
X181120874Y-104701875D01*
X181120874Y-104701875D02*
X181216112Y-104749494D01*
X181216112Y-104749494D02*
X181263731Y-104797113D01*
X181263731Y-104797113D02*
X181311350Y-104892351D01*
X181311350Y-104892351D02*
X181358969Y-105082827D01*
X181358969Y-105082827D02*
X181358969Y-105320922D01*
X181358969Y-105320922D02*
X181311350Y-105511398D01*
X181311350Y-105511398D02*
X181263731Y-105606636D01*
X181263731Y-105606636D02*
X181216112Y-105654256D01*
X181216112Y-105654256D02*
X181120874Y-105701875D01*
X181120874Y-105701875D02*
X181025636Y-105701875D01*
X181025636Y-105701875D02*
X180930398Y-105654256D01*
X180930398Y-105654256D02*
X180882779Y-105606636D01*
X180882779Y-105606636D02*
X180835160Y-105511398D01*
X180835160Y-105511398D02*
X180787541Y-105320922D01*
X180787541Y-105320922D02*
X180787541Y-105082827D01*
X180787541Y-105082827D02*
X180835160Y-104892351D01*
X180835160Y-104892351D02*
X180882779Y-104797113D01*
X180882779Y-104797113D02*
X180930398Y-104749494D01*
X180930398Y-104749494D02*
X181025636Y-104701875D01*
X182311350Y-105701875D02*
X181739922Y-105701875D01*
X182025636Y-105701875D02*
X182025636Y-104701875D01*
X182025636Y-104701875D02*
X181930398Y-104844732D01*
X181930398Y-104844732D02*
X181835160Y-104939970D01*
X181835160Y-104939970D02*
X181739922Y-104987589D01*
X183168493Y-105035208D02*
X183168493Y-105701875D01*
X182930398Y-104654256D02*
X182692303Y-105368541D01*
X182692303Y-105368541D02*
X183311350Y-105368541D01*
X184311351Y-105035208D02*
X184692303Y-105035208D01*
X184454208Y-104701875D02*
X184454208Y-105559017D01*
X184454208Y-105559017D02*
X184501827Y-105654256D01*
X184501827Y-105654256D02*
X184597065Y-105701875D01*
X184597065Y-105701875D02*
X184692303Y-105701875D01*
X185168494Y-105701875D02*
X185073256Y-105654256D01*
X185073256Y-105654256D02*
X185025637Y-105606636D01*
X185025637Y-105606636D02*
X184978018Y-105511398D01*
X184978018Y-105511398D02*
X184978018Y-105225684D01*
X184978018Y-105225684D02*
X185025637Y-105130446D01*
X185025637Y-105130446D02*
X185073256Y-105082827D01*
X185073256Y-105082827D02*
X185168494Y-105035208D01*
X185168494Y-105035208D02*
X185311351Y-105035208D01*
X185311351Y-105035208D02*
X185406589Y-105082827D01*
X185406589Y-105082827D02*
X185454208Y-105130446D01*
X185454208Y-105130446D02*
X185501827Y-105225684D01*
X185501827Y-105225684D02*
X185501827Y-105511398D01*
X185501827Y-105511398D02*
X185454208Y-105606636D01*
X185454208Y-105606636D02*
X185406589Y-105654256D01*
X185406589Y-105654256D02*
X185311351Y-105701875D01*
X185311351Y-105701875D02*
X185168494Y-105701875D01*
X186597066Y-104701875D02*
X187263732Y-104701875D01*
X187263732Y-104701875D02*
X186597066Y-105701875D01*
X186597066Y-105701875D02*
X187263732Y-105701875D01*
X188120875Y-104701875D02*
X187644685Y-104701875D01*
X187644685Y-104701875D02*
X187597066Y-105178065D01*
X187597066Y-105178065D02*
X187644685Y-105130446D01*
X187644685Y-105130446D02*
X187739923Y-105082827D01*
X187739923Y-105082827D02*
X187978018Y-105082827D01*
X187978018Y-105082827D02*
X188073256Y-105130446D01*
X188073256Y-105130446D02*
X188120875Y-105178065D01*
X188120875Y-105178065D02*
X188168494Y-105273303D01*
X188168494Y-105273303D02*
X188168494Y-105511398D01*
X188168494Y-105511398D02*
X188120875Y-105606636D01*
X188120875Y-105606636D02*
X188073256Y-105654256D01*
X188073256Y-105654256D02*
X187978018Y-105701875D01*
X187978018Y-105701875D02*
X187739923Y-105701875D01*
X187739923Y-105701875D02*
X187644685Y-105654256D01*
X187644685Y-105654256D02*
X187597066Y-105606636D01*
X188787542Y-104701875D02*
X188882780Y-104701875D01*
X188882780Y-104701875D02*
X188978018Y-104749494D01*
X188978018Y-104749494D02*
X189025637Y-104797113D01*
X189025637Y-104797113D02*
X189073256Y-104892351D01*
X189073256Y-104892351D02*
X189120875Y-105082827D01*
X189120875Y-105082827D02*
X189120875Y-105320922D01*
X189120875Y-105320922D02*
X189073256Y-105511398D01*
X189073256Y-105511398D02*
X189025637Y-105606636D01*
X189025637Y-105606636D02*
X188978018Y-105654256D01*
X188978018Y-105654256D02*
X188882780Y-105701875D01*
X188882780Y-105701875D02*
X188787542Y-105701875D01*
X188787542Y-105701875D02*
X188692304Y-105654256D01*
X188692304Y-105654256D02*
X188644685Y-105606636D01*
X188644685Y-105606636D02*
X188597066Y-105511398D01*
X188597066Y-105511398D02*
X188549447Y-105320922D01*
X188549447Y-105320922D02*
X188549447Y-105082827D01*
X188549447Y-105082827D02*
X188597066Y-104892351D01*
X188597066Y-104892351D02*
X188644685Y-104797113D01*
X188644685Y-104797113D02*
X188692304Y-104749494D01*
X188692304Y-104749494D02*
X188787542Y-104701875D01*
X190739923Y-105701875D02*
X190739923Y-105178065D01*
X190739923Y-105178065D02*
X190692304Y-105082827D01*
X190692304Y-105082827D02*
X190597066Y-105035208D01*
X190597066Y-105035208D02*
X190406590Y-105035208D01*
X190406590Y-105035208D02*
X190311352Y-105082827D01*
X190739923Y-105654256D02*
X190644685Y-105701875D01*
X190644685Y-105701875D02*
X190406590Y-105701875D01*
X190406590Y-105701875D02*
X190311352Y-105654256D01*
X190311352Y-105654256D02*
X190263733Y-105559017D01*
X190263733Y-105559017D02*
X190263733Y-105463779D01*
X190263733Y-105463779D02*
X190311352Y-105368541D01*
X190311352Y-105368541D02*
X190406590Y-105320922D01*
X190406590Y-105320922D02*
X190644685Y-105320922D01*
X190644685Y-105320922D02*
X190739923Y-105273303D01*
X191644685Y-105701875D02*
X191644685Y-104701875D01*
X191644685Y-105654256D02*
X191549447Y-105701875D01*
X191549447Y-105701875D02*
X191358971Y-105701875D01*
X191358971Y-105701875D02*
X191263733Y-105654256D01*
X191263733Y-105654256D02*
X191216114Y-105606636D01*
X191216114Y-105606636D02*
X191168495Y-105511398D01*
X191168495Y-105511398D02*
X191168495Y-105225684D01*
X191168495Y-105225684D02*
X191216114Y-105130446D01*
X191216114Y-105130446D02*
X191263733Y-105082827D01*
X191263733Y-105082827D02*
X191358971Y-105035208D01*
X191358971Y-105035208D02*
X191549447Y-105035208D01*
X191549447Y-105035208D02*
X191644685Y-105082827D01*
X192549447Y-105701875D02*
X192549447Y-105178065D01*
X192549447Y-105178065D02*
X192501828Y-105082827D01*
X192501828Y-105082827D02*
X192406590Y-105035208D01*
X192406590Y-105035208D02*
X192216114Y-105035208D01*
X192216114Y-105035208D02*
X192120876Y-105082827D01*
X192549447Y-105654256D02*
X192454209Y-105701875D01*
X192454209Y-105701875D02*
X192216114Y-105701875D01*
X192216114Y-105701875D02*
X192120876Y-105654256D01*
X192120876Y-105654256D02*
X192073257Y-105559017D01*
X192073257Y-105559017D02*
X192073257Y-105463779D01*
X192073257Y-105463779D02*
X192120876Y-105368541D01*
X192120876Y-105368541D02*
X192216114Y-105320922D01*
X192216114Y-105320922D02*
X192454209Y-105320922D01*
X192454209Y-105320922D02*
X192549447Y-105273303D01*
X193025638Y-105035208D02*
X193025638Y-106035208D01*
X193025638Y-105082827D02*
X193120876Y-105035208D01*
X193120876Y-105035208D02*
X193311352Y-105035208D01*
X193311352Y-105035208D02*
X193406590Y-105082827D01*
X193406590Y-105082827D02*
X193454209Y-105130446D01*
X193454209Y-105130446D02*
X193501828Y-105225684D01*
X193501828Y-105225684D02*
X193501828Y-105511398D01*
X193501828Y-105511398D02*
X193454209Y-105606636D01*
X193454209Y-105606636D02*
X193406590Y-105654256D01*
X193406590Y-105654256D02*
X193311352Y-105701875D01*
X193311352Y-105701875D02*
X193120876Y-105701875D01*
X193120876Y-105701875D02*
X193025638Y-105654256D01*
X193787543Y-105035208D02*
X194168495Y-105035208D01*
X193930400Y-104701875D02*
X193930400Y-105559017D01*
X193930400Y-105559017D02*
X193978019Y-105654256D01*
X193978019Y-105654256D02*
X194073257Y-105701875D01*
X194073257Y-105701875D02*
X194168495Y-105701875D01*
X194882781Y-105654256D02*
X194787543Y-105701875D01*
X194787543Y-105701875D02*
X194597067Y-105701875D01*
X194597067Y-105701875D02*
X194501829Y-105654256D01*
X194501829Y-105654256D02*
X194454210Y-105559017D01*
X194454210Y-105559017D02*
X194454210Y-105178065D01*
X194454210Y-105178065D02*
X194501829Y-105082827D01*
X194501829Y-105082827D02*
X194597067Y-105035208D01*
X194597067Y-105035208D02*
X194787543Y-105035208D01*
X194787543Y-105035208D02*
X194882781Y-105082827D01*
X194882781Y-105082827D02*
X194930400Y-105178065D01*
X194930400Y-105178065D02*
X194930400Y-105273303D01*
X194930400Y-105273303D02*
X194454210Y-105368541D01*
X195358972Y-105701875D02*
X195358972Y-105035208D01*
X195358972Y-105225684D02*
X195406591Y-105130446D01*
X195406591Y-105130446D02*
X195454210Y-105082827D01*
X195454210Y-105082827D02*
X195549448Y-105035208D01*
X195549448Y-105035208D02*
X195644686Y-105035208D01*
X177787541Y-106645152D02*
X178025636Y-107311819D01*
X178025636Y-107311819D02*
X178263731Y-106645152D01*
X179168493Y-107311819D02*
X178597065Y-107311819D01*
X178882779Y-107311819D02*
X178882779Y-106311819D01*
X178882779Y-106311819D02*
X178787541Y-106454676D01*
X178787541Y-106454676D02*
X178692303Y-106549914D01*
X178692303Y-106549914D02*
X178597065Y-106597533D01*
X179597065Y-107216580D02*
X179644684Y-107264200D01*
X179644684Y-107264200D02*
X179597065Y-107311819D01*
X179597065Y-107311819D02*
X179549446Y-107264200D01*
X179549446Y-107264200D02*
X179597065Y-107216580D01*
X179597065Y-107216580D02*
X179597065Y-107311819D01*
X180263731Y-106311819D02*
X180358969Y-106311819D01*
X180358969Y-106311819D02*
X180454207Y-106359438D01*
X180454207Y-106359438D02*
X180501826Y-106407057D01*
X180501826Y-106407057D02*
X180549445Y-106502295D01*
X180549445Y-106502295D02*
X180597064Y-106692771D01*
X180597064Y-106692771D02*
X180597064Y-106930866D01*
X180597064Y-106930866D02*
X180549445Y-107121342D01*
X180549445Y-107121342D02*
X180501826Y-107216580D01*
X180501826Y-107216580D02*
X180454207Y-107264200D01*
X180454207Y-107264200D02*
X180358969Y-107311819D01*
X180358969Y-107311819D02*
X180263731Y-107311819D01*
X180263731Y-107311819D02*
X180168493Y-107264200D01*
X180168493Y-107264200D02*
X180120874Y-107216580D01*
X180120874Y-107216580D02*
X180073255Y-107121342D01*
X180073255Y-107121342D02*
X180025636Y-106930866D01*
X180025636Y-106930866D02*
X180025636Y-106692771D01*
X180025636Y-106692771D02*
X180073255Y-106502295D01*
X180073255Y-106502295D02*
X180120874Y-106407057D01*
X180120874Y-106407057D02*
X180168493Y-106359438D01*
X180168493Y-106359438D02*
X180263731Y-106311819D01*
X182073255Y-107692771D02*
X182025636Y-107645152D01*
X182025636Y-107645152D02*
X181930398Y-107502295D01*
X181930398Y-107502295D02*
X181882779Y-107407057D01*
X181882779Y-107407057D02*
X181835160Y-107264200D01*
X181835160Y-107264200D02*
X181787541Y-107026104D01*
X181787541Y-107026104D02*
X181787541Y-106835628D01*
X181787541Y-106835628D02*
X181835160Y-106597533D01*
X181835160Y-106597533D02*
X181882779Y-106454676D01*
X181882779Y-106454676D02*
X181930398Y-106359438D01*
X181930398Y-106359438D02*
X182025636Y-106216580D01*
X182025636Y-106216580D02*
X182073255Y-106168961D01*
X182882779Y-107264200D02*
X182787541Y-107311819D01*
X182787541Y-107311819D02*
X182597065Y-107311819D01*
X182597065Y-107311819D02*
X182501827Y-107264200D01*
X182501827Y-107264200D02*
X182454208Y-107216580D01*
X182454208Y-107216580D02*
X182406589Y-107121342D01*
X182406589Y-107121342D02*
X182406589Y-106835628D01*
X182406589Y-106835628D02*
X182454208Y-106740390D01*
X182454208Y-106740390D02*
X182501827Y-106692771D01*
X182501827Y-106692771D02*
X182597065Y-106645152D01*
X182597065Y-106645152D02*
X182787541Y-106645152D01*
X182787541Y-106645152D02*
X182882779Y-106692771D01*
X183216113Y-107692771D02*
X183263732Y-107645152D01*
X183263732Y-107645152D02*
X183358970Y-107502295D01*
X183358970Y-107502295D02*
X183406589Y-107407057D01*
X183406589Y-107407057D02*
X183454208Y-107264200D01*
X183454208Y-107264200D02*
X183501827Y-107026104D01*
X183501827Y-107026104D02*
X183501827Y-106835628D01*
X183501827Y-106835628D02*
X183454208Y-106597533D01*
X183454208Y-106597533D02*
X183406589Y-106454676D01*
X183406589Y-106454676D02*
X183358970Y-106359438D01*
X183358970Y-106359438D02*
X183263732Y-106216580D01*
X183263732Y-106216580D02*
X183216113Y-106168961D01*
X183930399Y-106407057D02*
X183978018Y-106359438D01*
X183978018Y-106359438D02*
X184073256Y-106311819D01*
X184073256Y-106311819D02*
X184311351Y-106311819D01*
X184311351Y-106311819D02*
X184406589Y-106359438D01*
X184406589Y-106359438D02*
X184454208Y-106407057D01*
X184454208Y-106407057D02*
X184501827Y-106502295D01*
X184501827Y-106502295D02*
X184501827Y-106597533D01*
X184501827Y-106597533D02*
X184454208Y-106740390D01*
X184454208Y-106740390D02*
X183882780Y-107311819D01*
X183882780Y-107311819D02*
X184501827Y-107311819D01*
X185120875Y-106311819D02*
X185216113Y-106311819D01*
X185216113Y-106311819D02*
X185311351Y-106359438D01*
X185311351Y-106359438D02*
X185358970Y-106407057D01*
X185358970Y-106407057D02*
X185406589Y-106502295D01*
X185406589Y-106502295D02*
X185454208Y-106692771D01*
X185454208Y-106692771D02*
X185454208Y-106930866D01*
X185454208Y-106930866D02*
X185406589Y-107121342D01*
X185406589Y-107121342D02*
X185358970Y-107216580D01*
X185358970Y-107216580D02*
X185311351Y-107264200D01*
X185311351Y-107264200D02*
X185216113Y-107311819D01*
X185216113Y-107311819D02*
X185120875Y-107311819D01*
X185120875Y-107311819D02*
X185025637Y-107264200D01*
X185025637Y-107264200D02*
X184978018Y-107216580D01*
X184978018Y-107216580D02*
X184930399Y-107121342D01*
X184930399Y-107121342D02*
X184882780Y-106930866D01*
X184882780Y-106930866D02*
X184882780Y-106692771D01*
X184882780Y-106692771D02*
X184930399Y-106502295D01*
X184930399Y-106502295D02*
X184978018Y-106407057D01*
X184978018Y-106407057D02*
X185025637Y-106359438D01*
X185025637Y-106359438D02*
X185120875Y-106311819D01*
X185835161Y-106407057D02*
X185882780Y-106359438D01*
X185882780Y-106359438D02*
X185978018Y-106311819D01*
X185978018Y-106311819D02*
X186216113Y-106311819D01*
X186216113Y-106311819D02*
X186311351Y-106359438D01*
X186311351Y-106359438D02*
X186358970Y-106407057D01*
X186358970Y-106407057D02*
X186406589Y-106502295D01*
X186406589Y-106502295D02*
X186406589Y-106597533D01*
X186406589Y-106597533D02*
X186358970Y-106740390D01*
X186358970Y-106740390D02*
X185787542Y-107311819D01*
X185787542Y-107311819D02*
X186406589Y-107311819D01*
X187263732Y-106645152D02*
X187263732Y-107311819D01*
X187025637Y-106264200D02*
X186787542Y-106978485D01*
X186787542Y-106978485D02*
X187406589Y-106978485D01*
X188835161Y-106311819D02*
X188835161Y-107026104D01*
X188835161Y-107026104D02*
X188787542Y-107168961D01*
X188787542Y-107168961D02*
X188692304Y-107264200D01*
X188692304Y-107264200D02*
X188549447Y-107311819D01*
X188549447Y-107311819D02*
X188454209Y-107311819D01*
X189692304Y-107264200D02*
X189597066Y-107311819D01*
X189597066Y-107311819D02*
X189406590Y-107311819D01*
X189406590Y-107311819D02*
X189311352Y-107264200D01*
X189311352Y-107264200D02*
X189263733Y-107168961D01*
X189263733Y-107168961D02*
X189263733Y-106788009D01*
X189263733Y-106788009D02*
X189311352Y-106692771D01*
X189311352Y-106692771D02*
X189406590Y-106645152D01*
X189406590Y-106645152D02*
X189597066Y-106645152D01*
X189597066Y-106645152D02*
X189692304Y-106692771D01*
X189692304Y-106692771D02*
X189739923Y-106788009D01*
X189739923Y-106788009D02*
X189739923Y-106883247D01*
X189739923Y-106883247D02*
X189263733Y-106978485D01*
X190168495Y-107311819D02*
X190168495Y-106645152D01*
X190168495Y-106835628D02*
X190216114Y-106740390D01*
X190216114Y-106740390D02*
X190263733Y-106692771D01*
X190263733Y-106692771D02*
X190358971Y-106645152D01*
X190358971Y-106645152D02*
X190454209Y-106645152D01*
X190930400Y-107311819D02*
X190835162Y-107264200D01*
X190835162Y-107264200D02*
X190787543Y-107216580D01*
X190787543Y-107216580D02*
X190739924Y-107121342D01*
X190739924Y-107121342D02*
X190739924Y-106835628D01*
X190739924Y-106835628D02*
X190787543Y-106740390D01*
X190787543Y-106740390D02*
X190835162Y-106692771D01*
X190835162Y-106692771D02*
X190930400Y-106645152D01*
X190930400Y-106645152D02*
X191073257Y-106645152D01*
X191073257Y-106645152D02*
X191168495Y-106692771D01*
X191168495Y-106692771D02*
X191216114Y-106740390D01*
X191216114Y-106740390D02*
X191263733Y-106835628D01*
X191263733Y-106835628D02*
X191263733Y-107121342D01*
X191263733Y-107121342D02*
X191216114Y-107216580D01*
X191216114Y-107216580D02*
X191168495Y-107264200D01*
X191168495Y-107264200D02*
X191073257Y-107311819D01*
X191073257Y-107311819D02*
X190930400Y-107311819D01*
X192073257Y-107264200D02*
X191978019Y-107311819D01*
X191978019Y-107311819D02*
X191787543Y-107311819D01*
X191787543Y-107311819D02*
X191692305Y-107264200D01*
X191692305Y-107264200D02*
X191644686Y-107168961D01*
X191644686Y-107168961D02*
X191644686Y-106788009D01*
X191644686Y-106788009D02*
X191692305Y-106692771D01*
X191692305Y-106692771D02*
X191787543Y-106645152D01*
X191787543Y-106645152D02*
X191978019Y-106645152D01*
X191978019Y-106645152D02*
X192073257Y-106692771D01*
X192073257Y-106692771D02*
X192120876Y-106788009D01*
X192120876Y-106788009D02*
X192120876Y-106883247D01*
X192120876Y-106883247D02*
X191644686Y-106978485D01*
X192549448Y-106645152D02*
X192549448Y-107311819D01*
X192549448Y-106740390D02*
X192597067Y-106692771D01*
X192597067Y-106692771D02*
X192692305Y-106645152D01*
X192692305Y-106645152D02*
X192835162Y-106645152D01*
X192835162Y-106645152D02*
X192930400Y-106692771D01*
X192930400Y-106692771D02*
X192978019Y-106788009D01*
X192978019Y-106788009D02*
X192978019Y-107311819D01*
X194073258Y-106311819D02*
X194406591Y-107311819D01*
X194406591Y-107311819D02*
X194739924Y-106311819D01*
X195454210Y-107264200D02*
X195358972Y-107311819D01*
X195358972Y-107311819D02*
X195168496Y-107311819D01*
X195168496Y-107311819D02*
X195073258Y-107264200D01*
X195073258Y-107264200D02*
X195025639Y-107168961D01*
X195025639Y-107168961D02*
X195025639Y-106788009D01*
X195025639Y-106788009D02*
X195073258Y-106692771D01*
X195073258Y-106692771D02*
X195168496Y-106645152D01*
X195168496Y-106645152D02*
X195358972Y-106645152D01*
X195358972Y-106645152D02*
X195454210Y-106692771D01*
X195454210Y-106692771D02*
X195501829Y-106788009D01*
X195501829Y-106788009D02*
X195501829Y-106883247D01*
X195501829Y-106883247D02*
X195025639Y-106978485D01*
X195930401Y-106645152D02*
X195930401Y-107311819D01*
X195930401Y-106740390D02*
X195978020Y-106692771D01*
X195978020Y-106692771D02*
X196073258Y-106645152D01*
X196073258Y-106645152D02*
X196216115Y-106645152D01*
X196216115Y-106645152D02*
X196311353Y-106692771D01*
X196311353Y-106692771D02*
X196358972Y-106788009D01*
X196358972Y-106788009D02*
X196358972Y-107311819D01*
X197216115Y-107264200D02*
X197120877Y-107311819D01*
X197120877Y-107311819D02*
X196930401Y-107311819D01*
X196930401Y-107311819D02*
X196835163Y-107264200D01*
X196835163Y-107264200D02*
X196787544Y-107168961D01*
X196787544Y-107168961D02*
X196787544Y-106788009D01*
X196787544Y-106788009D02*
X196835163Y-106692771D01*
X196835163Y-106692771D02*
X196930401Y-106645152D01*
X196930401Y-106645152D02*
X197120877Y-106645152D01*
X197120877Y-106645152D02*
X197216115Y-106692771D01*
X197216115Y-106692771D02*
X197263734Y-106788009D01*
X197263734Y-106788009D02*
X197263734Y-106883247D01*
X197263734Y-106883247D02*
X196787544Y-106978485D01*
X197692306Y-107311819D02*
X197692306Y-106645152D01*
X197692306Y-106740390D02*
X197739925Y-106692771D01*
X197739925Y-106692771D02*
X197835163Y-106645152D01*
X197835163Y-106645152D02*
X197978020Y-106645152D01*
X197978020Y-106645152D02*
X198073258Y-106692771D01*
X198073258Y-106692771D02*
X198120877Y-106788009D01*
X198120877Y-106788009D02*
X198120877Y-107311819D01*
X198120877Y-106788009D02*
X198168496Y-106692771D01*
X198168496Y-106692771D02*
X198263734Y-106645152D01*
X198263734Y-106645152D02*
X198406591Y-106645152D01*
X198406591Y-106645152D02*
X198501830Y-106692771D01*
X198501830Y-106692771D02*
X198549449Y-106788009D01*
X198549449Y-106788009D02*
X198549449Y-107311819D01*
X199454210Y-107311819D02*
X199454210Y-106788009D01*
X199454210Y-106788009D02*
X199406591Y-106692771D01*
X199406591Y-106692771D02*
X199311353Y-106645152D01*
X199311353Y-106645152D02*
X199120877Y-106645152D01*
X199120877Y-106645152D02*
X199025639Y-106692771D01*
X199454210Y-107264200D02*
X199358972Y-107311819D01*
X199358972Y-107311819D02*
X199120877Y-107311819D01*
X199120877Y-107311819D02*
X199025639Y-107264200D01*
X199025639Y-107264200D02*
X198978020Y-107168961D01*
X198978020Y-107168961D02*
X198978020Y-107073723D01*
X198978020Y-107073723D02*
X199025639Y-106978485D01*
X199025639Y-106978485D02*
X199120877Y-106930866D01*
X199120877Y-106930866D02*
X199358972Y-106930866D01*
X199358972Y-106930866D02*
X199454210Y-106883247D01*
X238413895Y-104683160D02*
X238413895Y-105159350D01*
X238128180Y-104587922D02*
X239128180Y-104921255D01*
X239128180Y-104921255D02*
X238128180Y-105254588D01*
X238128180Y-106111731D02*
X238128180Y-105540303D01*
X238128180Y-105826017D02*
X239128180Y-105826017D01*
X239128180Y-105826017D02*
X238985323Y-105730779D01*
X238985323Y-105730779D02*
X238890085Y-105635541D01*
X238890085Y-105635541D02*
X238842466Y-105540303D01*
X239128180Y-107016493D02*
X239128180Y-106540303D01*
X239128180Y-106540303D02*
X238651990Y-106492684D01*
X238651990Y-106492684D02*
X238699609Y-106540303D01*
X238699609Y-106540303D02*
X238747228Y-106635541D01*
X238747228Y-106635541D02*
X238747228Y-106873636D01*
X238747228Y-106873636D02*
X238699609Y-106968874D01*
X238699609Y-106968874D02*
X238651990Y-107016493D01*
X238651990Y-107016493D02*
X238556752Y-107064112D01*
X238556752Y-107064112D02*
X238318657Y-107064112D01*
X238318657Y-107064112D02*
X238223419Y-107016493D01*
X238223419Y-107016493D02*
X238175800Y-106968874D01*
X238175800Y-106968874D02*
X238128180Y-106873636D01*
X238128180Y-106873636D02*
X238128180Y-106635541D01*
X238128180Y-106635541D02*
X238175800Y-106540303D01*
X238175800Y-106540303D02*
X238223419Y-106492684D01*
X257463895Y-101127160D02*
X257463895Y-101603350D01*
X257178180Y-101031922D02*
X258178180Y-101365255D01*
X258178180Y-101365255D02*
X257178180Y-101698588D01*
X257178180Y-102555731D02*
X257178180Y-101984303D01*
X257178180Y-102270017D02*
X258178180Y-102270017D01*
X258178180Y-102270017D02*
X258035323Y-102174779D01*
X258035323Y-102174779D02*
X257940085Y-102079541D01*
X257940085Y-102079541D02*
X257892466Y-101984303D01*
X258178180Y-103460493D02*
X258178180Y-102984303D01*
X258178180Y-102984303D02*
X257701990Y-102936684D01*
X257701990Y-102936684D02*
X257749609Y-102984303D01*
X257749609Y-102984303D02*
X257797228Y-103079541D01*
X257797228Y-103079541D02*
X257797228Y-103317636D01*
X257797228Y-103317636D02*
X257749609Y-103412874D01*
X257749609Y-103412874D02*
X257701990Y-103460493D01*
X257701990Y-103460493D02*
X257606752Y-103508112D01*
X257606752Y-103508112D02*
X257368657Y-103508112D01*
X257368657Y-103508112D02*
X257273419Y-103460493D01*
X257273419Y-103460493D02*
X257225800Y-103412874D01*
X257225800Y-103412874D02*
X257178180Y-103317636D01*
X257178180Y-103317636D02*
X257178180Y-103079541D01*
X257178180Y-103079541D02*
X257225800Y-102984303D01*
X257225800Y-102984303D02*
X257273419Y-102936684D01*
X212685333Y-104499580D02*
X212637714Y-104547200D01*
X212637714Y-104547200D02*
X212494857Y-104594819D01*
X212494857Y-104594819D02*
X212399619Y-104594819D01*
X212399619Y-104594819D02*
X212256762Y-104547200D01*
X212256762Y-104547200D02*
X212161524Y-104451961D01*
X212161524Y-104451961D02*
X212113905Y-104356723D01*
X212113905Y-104356723D02*
X212066286Y-104166247D01*
X212066286Y-104166247D02*
X212066286Y-104023390D01*
X212066286Y-104023390D02*
X212113905Y-103832914D01*
X212113905Y-103832914D02*
X212161524Y-103737676D01*
X212161524Y-103737676D02*
X212256762Y-103642438D01*
X212256762Y-103642438D02*
X212399619Y-103594819D01*
X212399619Y-103594819D02*
X212494857Y-103594819D01*
X212494857Y-103594819D02*
X212637714Y-103642438D01*
X212637714Y-103642438D02*
X212685333Y-103690057D01*
X213637714Y-104594819D02*
X213066286Y-104594819D01*
X213352000Y-104594819D02*
X213352000Y-103594819D01*
X213352000Y-103594819D02*
X213256762Y-103737676D01*
X213256762Y-103737676D02*
X213161524Y-103832914D01*
X213161524Y-103832914D02*
X213066286Y-103880533D01*
X238122180Y-108804588D02*
X238122180Y-108233160D01*
X238122180Y-108518874D02*
X239122180Y-108518874D01*
X239122180Y-108518874D02*
X238979323Y-108423636D01*
X238979323Y-108423636D02*
X238884085Y-108328398D01*
X238884085Y-108328398D02*
X238836466Y-108233160D01*
X240017541Y-111899819D02*
X240684207Y-111899819D01*
X240684207Y-111899819D02*
X240017541Y-112899819D01*
X240017541Y-112899819D02*
X240684207Y-112899819D01*
X241541350Y-111899819D02*
X241065160Y-111899819D01*
X241065160Y-111899819D02*
X241017541Y-112376009D01*
X241017541Y-112376009D02*
X241065160Y-112328390D01*
X241065160Y-112328390D02*
X241160398Y-112280771D01*
X241160398Y-112280771D02*
X241398493Y-112280771D01*
X241398493Y-112280771D02*
X241493731Y-112328390D01*
X241493731Y-112328390D02*
X241541350Y-112376009D01*
X241541350Y-112376009D02*
X241588969Y-112471247D01*
X241588969Y-112471247D02*
X241588969Y-112709342D01*
X241588969Y-112709342D02*
X241541350Y-112804580D01*
X241541350Y-112804580D02*
X241493731Y-112852200D01*
X241493731Y-112852200D02*
X241398493Y-112899819D01*
X241398493Y-112899819D02*
X241160398Y-112899819D01*
X241160398Y-112899819D02*
X241065160Y-112852200D01*
X241065160Y-112852200D02*
X241017541Y-112804580D01*
X242208017Y-111899819D02*
X242303255Y-111899819D01*
X242303255Y-111899819D02*
X242398493Y-111947438D01*
X242398493Y-111947438D02*
X242446112Y-111995057D01*
X242446112Y-111995057D02*
X242493731Y-112090295D01*
X242493731Y-112090295D02*
X242541350Y-112280771D01*
X242541350Y-112280771D02*
X242541350Y-112518866D01*
X242541350Y-112518866D02*
X242493731Y-112709342D01*
X242493731Y-112709342D02*
X242446112Y-112804580D01*
X242446112Y-112804580D02*
X242398493Y-112852200D01*
X242398493Y-112852200D02*
X242303255Y-112899819D01*
X242303255Y-112899819D02*
X242208017Y-112899819D01*
X242208017Y-112899819D02*
X242112779Y-112852200D01*
X242112779Y-112852200D02*
X242065160Y-112804580D01*
X242065160Y-112804580D02*
X242017541Y-112709342D01*
X242017541Y-112709342D02*
X241969922Y-112518866D01*
X241969922Y-112518866D02*
X241969922Y-112280771D01*
X241969922Y-112280771D02*
X242017541Y-112090295D01*
X242017541Y-112090295D02*
X242065160Y-111995057D01*
X242065160Y-111995057D02*
X242112779Y-111947438D01*
X242112779Y-111947438D02*
X242208017Y-111899819D01*
X243303255Y-112376009D02*
X243446112Y-112423628D01*
X243446112Y-112423628D02*
X243493731Y-112471247D01*
X243493731Y-112471247D02*
X243541350Y-112566485D01*
X243541350Y-112566485D02*
X243541350Y-112709342D01*
X243541350Y-112709342D02*
X243493731Y-112804580D01*
X243493731Y-112804580D02*
X243446112Y-112852200D01*
X243446112Y-112852200D02*
X243350874Y-112899819D01*
X243350874Y-112899819D02*
X242969922Y-112899819D01*
X242969922Y-112899819D02*
X242969922Y-111899819D01*
X242969922Y-111899819D02*
X243303255Y-111899819D01*
X243303255Y-111899819D02*
X243398493Y-111947438D01*
X243398493Y-111947438D02*
X243446112Y-111995057D01*
X243446112Y-111995057D02*
X243493731Y-112090295D01*
X243493731Y-112090295D02*
X243493731Y-112185533D01*
X243493731Y-112185533D02*
X243446112Y-112280771D01*
X243446112Y-112280771D02*
X243398493Y-112328390D01*
X243398493Y-112328390D02*
X243303255Y-112376009D01*
X243303255Y-112376009D02*
X242969922Y-112376009D01*
X244398493Y-112233152D02*
X244398493Y-112899819D01*
X243969922Y-112233152D02*
X243969922Y-112756961D01*
X243969922Y-112756961D02*
X244017541Y-112852200D01*
X244017541Y-112852200D02*
X244112779Y-112899819D01*
X244112779Y-112899819D02*
X244255636Y-112899819D01*
X244255636Y-112899819D02*
X244350874Y-112852200D01*
X244350874Y-112852200D02*
X244398493Y-112804580D01*
X244827065Y-112852200D02*
X244922303Y-112899819D01*
X244922303Y-112899819D02*
X245112779Y-112899819D01*
X245112779Y-112899819D02*
X245208017Y-112852200D01*
X245208017Y-112852200D02*
X245255636Y-112756961D01*
X245255636Y-112756961D02*
X245255636Y-112709342D01*
X245255636Y-112709342D02*
X245208017Y-112614104D01*
X245208017Y-112614104D02*
X245112779Y-112566485D01*
X245112779Y-112566485D02*
X244969922Y-112566485D01*
X244969922Y-112566485D02*
X244874684Y-112518866D01*
X244874684Y-112518866D02*
X244827065Y-112423628D01*
X244827065Y-112423628D02*
X244827065Y-112376009D01*
X244827065Y-112376009D02*
X244874684Y-112280771D01*
X244874684Y-112280771D02*
X244969922Y-112233152D01*
X244969922Y-112233152D02*
X245112779Y-112233152D01*
X245112779Y-112233152D02*
X245208017Y-112280771D01*
X248558207Y-100453819D02*
X248224874Y-99977628D01*
X247986779Y-100453819D02*
X247986779Y-99453819D01*
X247986779Y-99453819D02*
X248367731Y-99453819D01*
X248367731Y-99453819D02*
X248462969Y-99501438D01*
X248462969Y-99501438D02*
X248510588Y-99549057D01*
X248510588Y-99549057D02*
X248558207Y-99644295D01*
X248558207Y-99644295D02*
X248558207Y-99787152D01*
X248558207Y-99787152D02*
X248510588Y-99882390D01*
X248510588Y-99882390D02*
X248462969Y-99930009D01*
X248462969Y-99930009D02*
X248367731Y-99977628D01*
X248367731Y-99977628D02*
X247986779Y-99977628D01*
X249558207Y-100358580D02*
X249510588Y-100406200D01*
X249510588Y-100406200D02*
X249367731Y-100453819D01*
X249367731Y-100453819D02*
X249272493Y-100453819D01*
X249272493Y-100453819D02*
X249129636Y-100406200D01*
X249129636Y-100406200D02*
X249034398Y-100310961D01*
X249034398Y-100310961D02*
X248986779Y-100215723D01*
X248986779Y-100215723D02*
X248939160Y-100025247D01*
X248939160Y-100025247D02*
X248939160Y-99882390D01*
X248939160Y-99882390D02*
X248986779Y-99691914D01*
X248986779Y-99691914D02*
X249034398Y-99596676D01*
X249034398Y-99596676D02*
X249129636Y-99501438D01*
X249129636Y-99501438D02*
X249272493Y-99453819D01*
X249272493Y-99453819D02*
X249367731Y-99453819D01*
X249367731Y-99453819D02*
X249510588Y-99501438D01*
X249510588Y-99501438D02*
X249558207Y-99549057D01*
X249939160Y-99549057D02*
X249986779Y-99501438D01*
X249986779Y-99501438D02*
X250082017Y-99453819D01*
X250082017Y-99453819D02*
X250320112Y-99453819D01*
X250320112Y-99453819D02*
X250415350Y-99501438D01*
X250415350Y-99501438D02*
X250462969Y-99549057D01*
X250462969Y-99549057D02*
X250510588Y-99644295D01*
X250510588Y-99644295D02*
X250510588Y-99739533D01*
X250510588Y-99739533D02*
X250462969Y-99882390D01*
X250462969Y-99882390D02*
X249891541Y-100453819D01*
X249891541Y-100453819D02*
X250510588Y-100453819D01*
X251129636Y-99453819D02*
X251224874Y-99453819D01*
X251224874Y-99453819D02*
X251320112Y-99501438D01*
X251320112Y-99501438D02*
X251367731Y-99549057D01*
X251367731Y-99549057D02*
X251415350Y-99644295D01*
X251415350Y-99644295D02*
X251462969Y-99834771D01*
X251462969Y-99834771D02*
X251462969Y-100072866D01*
X251462969Y-100072866D02*
X251415350Y-100263342D01*
X251415350Y-100263342D02*
X251367731Y-100358580D01*
X251367731Y-100358580D02*
X251320112Y-100406200D01*
X251320112Y-100406200D02*
X251224874Y-100453819D01*
X251224874Y-100453819D02*
X251129636Y-100453819D01*
X251129636Y-100453819D02*
X251034398Y-100406200D01*
X251034398Y-100406200D02*
X250986779Y-100358580D01*
X250986779Y-100358580D02*
X250939160Y-100263342D01*
X250939160Y-100263342D02*
X250891541Y-100072866D01*
X250891541Y-100072866D02*
X250891541Y-99834771D01*
X250891541Y-99834771D02*
X250939160Y-99644295D01*
X250939160Y-99644295D02*
X250986779Y-99549057D01*
X250986779Y-99549057D02*
X251034398Y-99501438D01*
X251034398Y-99501438D02*
X251129636Y-99453819D01*
X252415350Y-100453819D02*
X251843922Y-100453819D01*
X252129636Y-100453819D02*
X252129636Y-99453819D01*
X252129636Y-99453819D02*
X252034398Y-99596676D01*
X252034398Y-99596676D02*
X251939160Y-99691914D01*
X251939160Y-99691914D02*
X251843922Y-99739533D01*
X253272493Y-99787152D02*
X253272493Y-100453819D01*
X253034398Y-99406200D02*
X252796303Y-100120485D01*
X252796303Y-100120485D02*
X253415350Y-100120485D01*
X257280180Y-99920588D02*
X257280180Y-99349160D01*
X257280180Y-99634874D02*
X258280180Y-99634874D01*
X258280180Y-99634874D02*
X258137323Y-99539636D01*
X258137323Y-99539636D02*
X258042085Y-99444398D01*
X258042085Y-99444398D02*
X257994466Y-99349160D01*
D11*
X215759000Y-103220000D02*
X217017000Y-103220000D01*
X215759000Y-105060000D02*
X217017000Y-105060000D01*
D12*
X237738000Y-107690000D02*
X238881000Y-107690000D01*
X237738000Y-109087000D02*
X237738000Y-107690000D01*
X238881000Y-107690000D02*
X239516000Y-108325000D01*
X239516000Y-108325000D02*
X239516000Y-113659000D01*
X258674000Y-99822000D02*
X258166000Y-100330000D01*
X258674000Y-98679000D02*
X258674000Y-99822000D01*
X258674000Y-94234000D02*
X258674000Y-98679000D01*
X258166000Y-100330000D02*
X256896000Y-100330000D01*
X256896000Y-100330000D02*
X256896000Y-99060000D01*
%LPC*%
D13*
X215138000Y-104140000D03*
X217638000Y-104140000D03*
D14*
X238500000Y-111500000D03*
X235960000Y-111500000D03*
X233420000Y-111500000D03*
X230880000Y-111500000D03*
X228340000Y-111500000D03*
X225800000Y-111500000D03*
X223260000Y-111500000D03*
X220720000Y-111500000D03*
X218180000Y-111500000D03*
X215640000Y-111500000D03*
X213100000Y-111500000D03*
X210560000Y-111500000D03*
X208020000Y-111500000D03*
X205480000Y-111500000D03*
X202940000Y-111500000D03*
X200400000Y-111500000D03*
X197860000Y-111500000D03*
X195320000Y-111500000D03*
X192780000Y-111500000D03*
X190240000Y-111500000D03*
X187700000Y-111500000D03*
X185160000Y-111500000D03*
X182620000Y-111500000D03*
X180080000Y-111500000D03*
X177540000Y-111500000D03*
X158598000Y-96520000D03*
X161138000Y-96520000D03*
X163678000Y-96520000D03*
X166218000Y-96520000D03*
X168758000Y-96520000D03*
X171298000Y-96520000D03*
X173838000Y-96520000D03*
X176378000Y-96520000D03*
X178918000Y-96520000D03*
X181458000Y-96520000D03*
X183998000Y-96520000D03*
X186538000Y-96520000D03*
X189078000Y-96520000D03*
X191618000Y-96520000D03*
X194158000Y-96520000D03*
X196698000Y-96520000D03*
X199238000Y-96520000D03*
X201778000Y-96520000D03*
X204318000Y-96520000D03*
X206858000Y-96520000D03*
X209398000Y-96520000D03*
X211938000Y-96520000D03*
X214478000Y-96520000D03*
X217018000Y-96520000D03*
X219558000Y-96520000D03*
X222098000Y-96520000D03*
X224638000Y-96520000D03*
X227178000Y-96520000D03*
X229718000Y-96520000D03*
X232258000Y-96520000D03*
X234798000Y-96520000D03*
X237338000Y-96520000D03*
X239878000Y-96520000D03*
X242418000Y-96520000D03*
X244958000Y-96520000D03*
X247498000Y-96520000D03*
X250038000Y-96520000D03*
X252578000Y-96520000D03*
X255118000Y-96520000D03*
X257658000Y-96520000D03*
%LPD*%
M02*
