G04 #@! TF.GenerationSoftware,KiCad,Pcbnew,8.0.3*
G04 #@! TF.CreationDate,2024-06-22T11:38:29+02:00*
G04 #@! TF.ProjectId,z502rc2014,7a353032-7263-4323-9031-342e6b696361,rev?*
G04 #@! TF.SameCoordinates,Original*
G04 #@! TF.FileFunction,Legend,Bot*
G04 #@! TF.FilePolarity,Positive*
%FSLAX46Y46*%
G04 Gerber Fmt 4.6, Leading zero omitted, Abs format (unit mm)*
G04 Created by KiCad (PCBNEW 8.0.3) date 2024-06-22 11:38:29*
%MOMM*%
%LPD*%
G01*
G04 APERTURE LIST*
%ADD10C,0.150000*%
%ADD11C,1.600000*%
%ADD12R,1.524000X4.500000*%
G04 APERTURE END LIST*
D10*
X242071731Y-106536295D02*
X242071731Y-107107723D01*
X242071731Y-107107723D02*
X242033636Y-107222009D01*
X242033636Y-107222009D02*
X241957445Y-107298200D01*
X241957445Y-107298200D02*
X241843160Y-107336295D01*
X241843160Y-107336295D02*
X241766969Y-107336295D01*
X242833636Y-107336295D02*
X242452684Y-107336295D01*
X242452684Y-107336295D02*
X242452684Y-106536295D01*
X243557446Y-107260104D02*
X243519350Y-107298200D01*
X243519350Y-107298200D02*
X243405065Y-107336295D01*
X243405065Y-107336295D02*
X243328874Y-107336295D01*
X243328874Y-107336295D02*
X243214588Y-107298200D01*
X243214588Y-107298200D02*
X243138398Y-107222009D01*
X243138398Y-107222009D02*
X243100303Y-107145819D01*
X243100303Y-107145819D02*
X243062207Y-106993438D01*
X243062207Y-106993438D02*
X243062207Y-106879152D01*
X243062207Y-106879152D02*
X243100303Y-106726771D01*
X243100303Y-106726771D02*
X243138398Y-106650580D01*
X243138398Y-106650580D02*
X243214588Y-106574390D01*
X243214588Y-106574390D02*
X243328874Y-106536295D01*
X243328874Y-106536295D02*
X243405065Y-106536295D01*
X243405065Y-106536295D02*
X243519350Y-106574390D01*
X243519350Y-106574390D02*
X243557446Y-106612485D01*
X244128874Y-106536295D02*
X244128874Y-107107723D01*
X244128874Y-107107723D02*
X244090779Y-107222009D01*
X244090779Y-107222009D02*
X244014588Y-107298200D01*
X244014588Y-107298200D02*
X243900303Y-107336295D01*
X243900303Y-107336295D02*
X243824112Y-107336295D01*
X244890779Y-107336295D02*
X244509827Y-107336295D01*
X244509827Y-107336295D02*
X244509827Y-106536295D01*
X245614589Y-107260104D02*
X245576493Y-107298200D01*
X245576493Y-107298200D02*
X245462208Y-107336295D01*
X245462208Y-107336295D02*
X245386017Y-107336295D01*
X245386017Y-107336295D02*
X245271731Y-107298200D01*
X245271731Y-107298200D02*
X245195541Y-107222009D01*
X245195541Y-107222009D02*
X245157446Y-107145819D01*
X245157446Y-107145819D02*
X245119350Y-106993438D01*
X245119350Y-106993438D02*
X245119350Y-106879152D01*
X245119350Y-106879152D02*
X245157446Y-106726771D01*
X245157446Y-106726771D02*
X245195541Y-106650580D01*
X245195541Y-106650580D02*
X245271731Y-106574390D01*
X245271731Y-106574390D02*
X245386017Y-106536295D01*
X245386017Y-106536295D02*
X245462208Y-106536295D01*
X245462208Y-106536295D02*
X245576493Y-106574390D01*
X245576493Y-106574390D02*
X245614589Y-106612485D01*
X246186017Y-106536295D02*
X246186017Y-107107723D01*
X246186017Y-107107723D02*
X246147922Y-107222009D01*
X246147922Y-107222009D02*
X246071731Y-107298200D01*
X246071731Y-107298200D02*
X245957446Y-107336295D01*
X245957446Y-107336295D02*
X245881255Y-107336295D01*
X246947922Y-107336295D02*
X246566970Y-107336295D01*
X246566970Y-107336295D02*
X246566970Y-106536295D01*
X247671732Y-107260104D02*
X247633636Y-107298200D01*
X247633636Y-107298200D02*
X247519351Y-107336295D01*
X247519351Y-107336295D02*
X247443160Y-107336295D01*
X247443160Y-107336295D02*
X247328874Y-107298200D01*
X247328874Y-107298200D02*
X247252684Y-107222009D01*
X247252684Y-107222009D02*
X247214589Y-107145819D01*
X247214589Y-107145819D02*
X247176493Y-106993438D01*
X247176493Y-106993438D02*
X247176493Y-106879152D01*
X247176493Y-106879152D02*
X247214589Y-106726771D01*
X247214589Y-106726771D02*
X247252684Y-106650580D01*
X247252684Y-106650580D02*
X247328874Y-106574390D01*
X247328874Y-106574390D02*
X247443160Y-106536295D01*
X247443160Y-106536295D02*
X247519351Y-106536295D01*
X247519351Y-106536295D02*
X247633636Y-106574390D01*
X247633636Y-106574390D02*
X247671732Y-106612485D01*
X248243160Y-106536295D02*
X248243160Y-107107723D01*
X248243160Y-107107723D02*
X248205065Y-107222009D01*
X248205065Y-107222009D02*
X248128874Y-107298200D01*
X248128874Y-107298200D02*
X248014589Y-107336295D01*
X248014589Y-107336295D02*
X247938398Y-107336295D01*
X249005065Y-107336295D02*
X248624113Y-107336295D01*
X248624113Y-107336295D02*
X248624113Y-106536295D01*
X249728875Y-107260104D02*
X249690779Y-107298200D01*
X249690779Y-107298200D02*
X249576494Y-107336295D01*
X249576494Y-107336295D02*
X249500303Y-107336295D01*
X249500303Y-107336295D02*
X249386017Y-107298200D01*
X249386017Y-107298200D02*
X249309827Y-107222009D01*
X249309827Y-107222009D02*
X249271732Y-107145819D01*
X249271732Y-107145819D02*
X249233636Y-106993438D01*
X249233636Y-106993438D02*
X249233636Y-106879152D01*
X249233636Y-106879152D02*
X249271732Y-106726771D01*
X249271732Y-106726771D02*
X249309827Y-106650580D01*
X249309827Y-106650580D02*
X249386017Y-106574390D01*
X249386017Y-106574390D02*
X249500303Y-106536295D01*
X249500303Y-106536295D02*
X249576494Y-106536295D01*
X249576494Y-106536295D02*
X249690779Y-106574390D01*
X249690779Y-106574390D02*
X249728875Y-106612485D01*
%LPC*%
D11*
X215138000Y-104140000D03*
X217638000Y-104140000D03*
D12*
X238500000Y-111500000D03*
X235960000Y-111500000D03*
X233420000Y-111500000D03*
X230880000Y-111500000D03*
X228340000Y-111500000D03*
X225800000Y-111500000D03*
X223260000Y-111500000D03*
X220720000Y-111500000D03*
X218180000Y-111500000D03*
X215640000Y-111500000D03*
X213100000Y-111500000D03*
X210560000Y-111500000D03*
X208020000Y-111500000D03*
X205480000Y-111500000D03*
X202940000Y-111500000D03*
X200400000Y-111500000D03*
X197860000Y-111500000D03*
X195320000Y-111500000D03*
X192780000Y-111500000D03*
X190240000Y-111500000D03*
X187700000Y-111500000D03*
X185160000Y-111500000D03*
X182620000Y-111500000D03*
X180080000Y-111500000D03*
X177540000Y-111500000D03*
X158598000Y-96520000D03*
X161138000Y-96520000D03*
X163678000Y-96520000D03*
X166218000Y-96520000D03*
X168758000Y-96520000D03*
X171298000Y-96520000D03*
X173838000Y-96520000D03*
X176378000Y-96520000D03*
X178918000Y-96520000D03*
X181458000Y-96520000D03*
X183998000Y-96520000D03*
X186538000Y-96520000D03*
X189078000Y-96520000D03*
X191618000Y-96520000D03*
X194158000Y-96520000D03*
X196698000Y-96520000D03*
X199238000Y-96520000D03*
X201778000Y-96520000D03*
X204318000Y-96520000D03*
X206858000Y-96520000D03*
X209398000Y-96520000D03*
X211938000Y-96520000D03*
X214478000Y-96520000D03*
X217018000Y-96520000D03*
X219558000Y-96520000D03*
X222098000Y-96520000D03*
X224638000Y-96520000D03*
X227178000Y-96520000D03*
X229718000Y-96520000D03*
X232258000Y-96520000D03*
X234798000Y-96520000D03*
X237338000Y-96520000D03*
X239878000Y-96520000D03*
X242418000Y-96520000D03*
X244958000Y-96520000D03*
X247498000Y-96520000D03*
X250038000Y-96520000D03*
X252578000Y-96520000D03*
X255118000Y-96520000D03*
X257658000Y-96520000D03*
%LPD*%
M02*
