G04 #@! TF.GenerationSoftware,KiCad,Pcbnew,8.0.3*
G04 #@! TF.CreationDate,2024-06-22T11:38:29+02:00*
G04 #@! TF.ProjectId,z502rc2014,7a353032-7263-4323-9031-342e6b696361,rev?*
G04 #@! TF.SameCoordinates,Original*
G04 #@! TF.FileFunction,Copper,L1,Top*
G04 #@! TF.FilePolarity,Positive*
%FSLAX46Y46*%
G04 Gerber Fmt 4.6, Leading zero omitted, Abs format (unit mm)*
G04 Created by KiCad (PCBNEW 8.0.3) date 2024-06-22 11:38:29*
%MOMM*%
%LPD*%
G01*
G04 APERTURE LIST*
G04 #@! TA.AperFunction,ComponentPad*
%ADD10C,1.600000*%
G04 #@! TD*
G04 #@! TA.AperFunction,ConnectorPad*
%ADD11R,1.524000X4.500000*%
G04 #@! TD*
G04 #@! TA.AperFunction,ViaPad*
%ADD12C,0.800000*%
G04 #@! TD*
G04 #@! TA.AperFunction,Conductor*
%ADD13C,0.250000*%
G04 #@! TD*
G04 APERTURE END LIST*
D10*
X215138000Y-104140000D03*
X217638000Y-104140000D03*
D11*
X238500000Y-111500000D03*
X235960000Y-111500000D03*
X233420000Y-111500000D03*
X230880000Y-111500000D03*
X228340000Y-111500000D03*
X225800000Y-111500000D03*
X223260000Y-111500000D03*
X220720000Y-111500000D03*
X218180000Y-111500000D03*
X215640000Y-111500000D03*
X213100000Y-111500000D03*
X210560000Y-111500000D03*
X208020000Y-111500000D03*
X205480000Y-111500000D03*
X202940000Y-111500000D03*
X200400000Y-111500000D03*
X197860000Y-111500000D03*
X195320000Y-111500000D03*
X192780000Y-111500000D03*
X190240000Y-111500000D03*
X187700000Y-111500000D03*
X185160000Y-111500000D03*
X182620000Y-111500000D03*
X180080000Y-111500000D03*
X177540000Y-111500000D03*
X158598000Y-96520000D03*
X161138000Y-96520000D03*
X163678000Y-96520000D03*
X166218000Y-96520000D03*
X168758000Y-96520000D03*
X171298000Y-96520000D03*
X173838000Y-96520000D03*
X176378000Y-96520000D03*
X178918000Y-96520000D03*
X181458000Y-96520000D03*
X183998000Y-96520000D03*
X186538000Y-96520000D03*
X189078000Y-96520000D03*
X191618000Y-96520000D03*
X194158000Y-96520000D03*
X196698000Y-96520000D03*
X199238000Y-96520000D03*
X201778000Y-96520000D03*
X204318000Y-96520000D03*
X206858000Y-96520000D03*
X209398000Y-96520000D03*
X211938000Y-96520000D03*
X214478000Y-96520000D03*
X217018000Y-96520000D03*
X219558000Y-96520000D03*
X222098000Y-96520000D03*
X224638000Y-96520000D03*
X227178000Y-96520000D03*
X229718000Y-96520000D03*
X232258000Y-96520000D03*
X234798000Y-96520000D03*
X237338000Y-96520000D03*
X239878000Y-96520000D03*
X242418000Y-96520000D03*
X244958000Y-96520000D03*
X247498000Y-96520000D03*
X250038000Y-96520000D03*
X252578000Y-96520000D03*
X255118000Y-96520000D03*
X257658000Y-96520000D03*
D12*
X183388000Y-108599000D03*
X183555238Y-102127493D03*
X212902000Y-108649998D03*
X193142839Y-108305854D03*
X174373077Y-105375000D03*
X176784141Y-104925000D03*
X236855000Y-104140000D03*
X249555000Y-103365000D03*
X235615155Y-108441917D03*
X180713851Y-101338851D03*
X241300000Y-101600000D03*
X231140000Y-103378000D03*
X194342393Y-103495000D03*
X203529658Y-105825674D03*
X243780486Y-101645548D03*
X233680000Y-103505000D03*
X232905000Y-108585000D03*
X192652500Y-103495010D03*
X200660000Y-105610000D03*
X189865000Y-103553007D03*
X231647996Y-104902004D03*
X226822000Y-104902000D03*
X204851025Y-102314997D03*
X197822284Y-103445000D03*
X247015000Y-104256623D03*
X233934000Y-104902000D03*
X220205000Y-108585000D03*
X189857512Y-108645000D03*
X166116000Y-105410000D03*
X200660000Y-103160000D03*
X236855000Y-100964996D03*
X228586600Y-103367064D03*
X229121000Y-106758531D03*
X183134000Y-100583996D03*
X184778012Y-103096751D03*
X198499456Y-106578862D03*
X168148000Y-105410000D03*
X180340000Y-108585000D03*
X180831252Y-103124000D03*
X234760078Y-106490078D03*
X179070000Y-103505000D03*
X197358000Y-108458000D03*
X254119992Y-103624992D03*
X236773491Y-108379597D03*
X252095000Y-104140000D03*
X181880212Y-103899000D03*
X222999000Y-108585000D03*
X164084000Y-105410000D03*
X185674000Y-99568000D03*
X187411992Y-103010000D03*
X207852502Y-103932498D03*
X203200000Y-103505000D03*
X236794814Y-107000814D03*
X172212000Y-105410000D03*
X192129843Y-108029548D03*
X170180000Y-105410000D03*
X185568508Y-108626492D03*
X186328012Y-102828358D03*
D13*
X234798000Y-106452156D02*
X234760078Y-106490078D01*
X234798000Y-96520000D02*
X234798000Y-106452156D01*
X236855000Y-104521000D02*
X235615155Y-105760845D01*
X235615155Y-105760845D02*
X235615155Y-108441917D01*
X236855000Y-104140000D02*
X236855000Y-104521000D01*
X235960000Y-109193088D02*
X235960000Y-111500000D01*
X236773491Y-108379597D02*
X235960000Y-109193088D01*
X233680000Y-105156000D02*
X233934000Y-104902000D01*
X233680000Y-111240000D02*
X233680000Y-105156000D01*
X233420000Y-111500000D02*
X233680000Y-111240000D01*
X232905000Y-104280000D02*
X233680000Y-103505000D01*
X232905000Y-108585000D02*
X232905000Y-104280000D01*
X232258000Y-104292000D02*
X231647996Y-104902004D01*
X232258000Y-96520000D02*
X232258000Y-104292000D01*
X230880000Y-111500000D02*
X230880000Y-103638000D01*
X230880000Y-103638000D02*
X231140000Y-103378000D01*
X229618419Y-106261112D02*
X229121000Y-106758531D01*
X229718000Y-96520000D02*
X229618419Y-96619581D01*
X229618419Y-96619581D02*
X229618419Y-106261112D01*
X225800000Y-105924000D02*
X226822000Y-104902000D01*
X225800000Y-111500000D02*
X225800000Y-105924000D01*
X228346000Y-103607664D02*
X228586600Y-103367064D01*
X228346000Y-111494000D02*
X228346000Y-103607664D01*
X228340000Y-111500000D02*
X228346000Y-111494000D01*
X197860000Y-108960000D02*
X197358000Y-108458000D01*
X197860000Y-111500000D02*
X197860000Y-108960000D01*
X183388000Y-102294731D02*
X183388000Y-108599000D01*
X183555238Y-102127493D02*
X183388000Y-102294731D01*
X181458000Y-96520000D02*
X181458000Y-99020000D01*
X181102000Y-107823000D02*
X181102000Y-103394748D01*
X180340000Y-108585000D02*
X181102000Y-107823000D01*
X181880212Y-99442212D02*
X181880212Y-103899000D01*
X181102000Y-103394748D02*
X180831252Y-103124000D01*
X181458000Y-99020000D02*
X181880212Y-99442212D01*
X182620000Y-101097996D02*
X183134000Y-100583996D01*
X185568508Y-108626492D02*
X186333970Y-107861030D01*
X182620000Y-111500000D02*
X182620000Y-101097996D01*
X185553012Y-99688988D02*
X185674000Y-99568000D01*
X185553012Y-103417767D02*
X185553012Y-99688988D01*
X184793508Y-111133508D02*
X184793508Y-104177271D01*
X185160000Y-111500000D02*
X184793508Y-111133508D01*
X186333970Y-102834316D02*
X186328012Y-102828358D01*
X183998000Y-96520000D02*
X184778012Y-97300012D01*
X184778012Y-97300012D02*
X184778012Y-103096751D01*
X186333970Y-107861030D02*
X186333970Y-102834316D01*
X184793508Y-104177271D02*
X185553012Y-103417767D01*
X186538000Y-96520000D02*
X187411992Y-97393992D01*
X187411992Y-97393992D02*
X187411992Y-103010000D01*
X200660000Y-105918000D02*
X200660000Y-105610000D01*
X202940000Y-108198000D02*
X200660000Y-105918000D01*
X202940000Y-111500000D02*
X202940000Y-108198000D01*
X208020000Y-104099996D02*
X207852502Y-103932498D01*
X208026000Y-107869984D02*
X208020000Y-107863984D01*
X208026000Y-111494000D02*
X208026000Y-107869984D01*
X208020000Y-111500000D02*
X208026000Y-111494000D01*
X208020000Y-107863984D02*
X208020000Y-104099996D01*
X205480000Y-111500000D02*
X205480000Y-107776016D01*
X205480000Y-107776016D02*
X203529658Y-105825674D01*
X222999000Y-101359000D02*
X222999000Y-108585000D01*
X224638000Y-96520000D02*
X224638000Y-99720000D01*
X224638000Y-99720000D02*
X222999000Y-101359000D01*
X223774000Y-110986000D02*
X223260000Y-111500000D01*
X223774000Y-102870000D02*
X223774000Y-110986000D01*
X227178000Y-99466000D02*
X223774000Y-102870000D01*
X227178000Y-96520000D02*
X227178000Y-99466000D01*
X217638000Y-110958000D02*
X218180000Y-111500000D01*
X217638000Y-104140000D02*
X217638000Y-110958000D01*
X217018000Y-103520000D02*
X217638000Y-104140000D01*
X217018000Y-96520000D02*
X217018000Y-103520000D01*
X215138000Y-110998000D02*
X215640000Y-111500000D01*
X215138000Y-104140000D02*
X215138000Y-110998000D01*
X214478000Y-103480000D02*
X215138000Y-104140000D01*
X214478000Y-96520000D02*
X214478000Y-103480000D01*
X209398000Y-99670000D02*
X209398000Y-96520000D01*
X212902000Y-103174000D02*
X209398000Y-99670000D01*
X212902000Y-108649998D02*
X212902000Y-103174000D01*
X213627000Y-110973000D02*
X213100000Y-111500000D01*
X213627000Y-99697000D02*
X213627000Y-110973000D01*
X211938000Y-98008000D02*
X213627000Y-99697000D01*
X211938000Y-96520000D02*
X211938000Y-98008000D01*
X210560000Y-109669000D02*
X210560000Y-111500000D01*
X208623000Y-99773000D02*
X208623000Y-107732000D01*
X206858000Y-96520000D02*
X206858000Y-98008000D01*
X206858000Y-98008000D02*
X208623000Y-99773000D01*
X208623000Y-107732000D02*
X210560000Y-109669000D01*
X214478000Y-96520000D02*
X215138000Y-97180000D01*
X239878000Y-96520000D02*
X239878000Y-103917628D01*
X239878000Y-103917628D02*
X236794814Y-107000814D01*
X195320000Y-110483015D02*
X193142839Y-108305854D01*
X195320000Y-111500000D02*
X195320000Y-110483015D01*
X173838000Y-96520000D02*
X173838000Y-104839923D01*
X173838000Y-104839923D02*
X174373077Y-105375000D01*
X176378000Y-96520000D02*
X176378000Y-104518859D01*
X176378000Y-104518859D02*
X176784141Y-104925000D01*
X250038000Y-102882000D02*
X249555000Y-103365000D01*
X250038000Y-96520000D02*
X250038000Y-102882000D01*
X179565000Y-108263984D02*
X180032633Y-107796351D01*
X179565000Y-110985000D02*
X179565000Y-108263984D01*
X180032633Y-107796351D02*
X180032633Y-102020069D01*
X180080000Y-111500000D02*
X179565000Y-110985000D01*
X180032633Y-102020069D02*
X180713851Y-101338851D01*
X242418000Y-96520000D02*
X242418000Y-100482000D01*
X242418000Y-100482000D02*
X241300000Y-101600000D01*
X194158000Y-103310607D02*
X194342393Y-103495000D01*
X194158000Y-96520000D02*
X194158000Y-103310607D01*
X244958000Y-96520000D02*
X244958000Y-100468034D01*
X244958000Y-100468034D02*
X243780486Y-101645548D01*
X191618000Y-96520000D02*
X191618000Y-102460510D01*
X191618000Y-102460510D02*
X192652500Y-103495010D01*
X189078000Y-96520000D02*
X189078000Y-102766007D01*
X189078000Y-102766007D02*
X189865000Y-103553007D01*
X204318000Y-101781972D02*
X204851025Y-102314997D01*
X204318000Y-96520000D02*
X204318000Y-101781972D01*
X196698000Y-102320716D02*
X196698000Y-96520000D01*
X197822284Y-103445000D02*
X196698000Y-102320716D01*
X247498000Y-103773623D02*
X247015000Y-104256623D01*
X247498000Y-96520000D02*
X247498000Y-103773623D01*
X219558000Y-96520000D02*
X219558000Y-107938000D01*
X219558000Y-107938000D02*
X220205000Y-108585000D01*
X163678000Y-102972000D02*
X166116000Y-105410000D01*
X163678000Y-96520000D02*
X163678000Y-102972000D01*
X189857512Y-111117512D02*
X189857512Y-108645000D01*
X190240000Y-111500000D02*
X189857512Y-111117512D01*
X199238000Y-96520000D02*
X199238000Y-101738000D01*
X199238000Y-101738000D02*
X200660000Y-103160000D01*
X247341000Y-111500000D02*
X238500000Y-111500000D01*
X257658000Y-96520000D02*
X257658000Y-101183000D01*
X257658000Y-101183000D02*
X247341000Y-111500000D01*
X237338000Y-96520000D02*
X237720745Y-96902745D01*
X237338000Y-100481996D02*
X236855000Y-100964996D01*
X237338000Y-96520000D02*
X237338000Y-100481996D01*
X198499456Y-107585456D02*
X198499456Y-106578862D01*
X200400000Y-109486000D02*
X198499456Y-107585456D01*
X200400000Y-111500000D02*
X200400000Y-109486000D01*
X166218000Y-96520000D02*
X166218000Y-103480000D01*
X166218000Y-103480000D02*
X168148000Y-105410000D01*
X178918000Y-103353000D02*
X179070000Y-103505000D01*
X178918000Y-96520000D02*
X178918000Y-103353000D01*
X255118000Y-96520000D02*
X255118000Y-102626984D01*
X255118000Y-102626984D02*
X254119992Y-103624992D01*
X252578000Y-96520000D02*
X252578000Y-103657000D01*
X252578000Y-103657000D02*
X252095000Y-104140000D01*
X221615000Y-97003000D02*
X221615000Y-103505000D01*
X221615000Y-103505000D02*
X220980000Y-104140000D01*
X222098000Y-96520000D02*
X221615000Y-97003000D01*
X220980000Y-104140000D02*
X220980000Y-111240000D01*
X220980000Y-111240000D02*
X220720000Y-111500000D01*
X164084000Y-105410000D02*
X161138000Y-102464000D01*
X161138000Y-102464000D02*
X161138000Y-96520000D01*
X223260000Y-111500000D02*
X222885000Y-111125000D01*
X201778000Y-96520000D02*
X201930000Y-96672000D01*
X201930000Y-96672000D02*
X201930000Y-102235000D01*
X201930000Y-102235000D02*
X203200000Y-103505000D01*
X192129843Y-110849843D02*
X192129843Y-108029548D01*
X171298000Y-104496000D02*
X172212000Y-105410000D01*
X171298000Y-96520000D02*
X171298000Y-104496000D01*
X192780000Y-111500000D02*
X192129843Y-110849843D01*
X168758000Y-103988000D02*
X170180000Y-105410000D01*
X168758000Y-96520000D02*
X168758000Y-103988000D01*
M02*
