%TF.GenerationSoftware,KiCad,Pcbnew,8.0.3*%
%TF.CreationDate,2024-06-22T11:38:50+02:00*%
%TF.ProjectId,z502rc2014,7a353032-7263-4323-9031-342e6b696361,rev?*%
%TF.SameCoordinates,Original*%
%TF.FileFunction,Drillmap*%
%TF.FilePolarity,Positive*%
%FSLAX45Y45*%
G04 Gerber Fmt 4.5, Leading zero omitted, Abs format (unit mm)*
G04 Created by KiCad (PCBNEW 8.0.3) date 2024-06-22 11:38:50*
%MOMM*%
%LPD*%
G01*
G04 APERTURE LIST*
%ADD10C,0.100000*%
%ADD11C,0.200000*%
G04 APERTURE END LIST*
D10*
X25882600Y-9398000D02*
X25882600Y-10388600D01*
X15748000Y-10388600D02*
X17170400Y-11404600D01*
X24460200Y-11404600D02*
X17170400Y-11404600D01*
X25882600Y-10388600D02*
X24460200Y-11404600D01*
X15748000Y-10388600D02*
X15748000Y-9398000D01*
X15748000Y-9398000D02*
X25882600Y-9398000D01*
D11*
X16003777Y-11721084D02*
X16003777Y-11521084D01*
X16003777Y-11521084D02*
X16051396Y-11521084D01*
X16051396Y-11521084D02*
X16079967Y-11530608D01*
X16079967Y-11530608D02*
X16099015Y-11549655D01*
X16099015Y-11549655D02*
X16108539Y-11568703D01*
X16108539Y-11568703D02*
X16118062Y-11606798D01*
X16118062Y-11606798D02*
X16118062Y-11635369D01*
X16118062Y-11635369D02*
X16108539Y-11673465D01*
X16108539Y-11673465D02*
X16099015Y-11692512D01*
X16099015Y-11692512D02*
X16079967Y-11711560D01*
X16079967Y-11711560D02*
X16051396Y-11721084D01*
X16051396Y-11721084D02*
X16003777Y-11721084D01*
X16203777Y-11721084D02*
X16203777Y-11587750D01*
X16203777Y-11625846D02*
X16213301Y-11606798D01*
X16213301Y-11606798D02*
X16222824Y-11597274D01*
X16222824Y-11597274D02*
X16241872Y-11587750D01*
X16241872Y-11587750D02*
X16260920Y-11587750D01*
X16327586Y-11721084D02*
X16327586Y-11587750D01*
X16327586Y-11521084D02*
X16318062Y-11530608D01*
X16318062Y-11530608D02*
X16327586Y-11540131D01*
X16327586Y-11540131D02*
X16337110Y-11530608D01*
X16337110Y-11530608D02*
X16327586Y-11521084D01*
X16327586Y-11521084D02*
X16327586Y-11540131D01*
X16451396Y-11721084D02*
X16432348Y-11711560D01*
X16432348Y-11711560D02*
X16422824Y-11692512D01*
X16422824Y-11692512D02*
X16422824Y-11521084D01*
X16556158Y-11721084D02*
X16537110Y-11711560D01*
X16537110Y-11711560D02*
X16527586Y-11692512D01*
X16527586Y-11692512D02*
X16527586Y-11521084D01*
X16784729Y-11721084D02*
X16784729Y-11521084D01*
X16784729Y-11521084D02*
X16851396Y-11663941D01*
X16851396Y-11663941D02*
X16918063Y-11521084D01*
X16918063Y-11521084D02*
X16918063Y-11721084D01*
X17099015Y-11721084D02*
X17099015Y-11616322D01*
X17099015Y-11616322D02*
X17089491Y-11597274D01*
X17089491Y-11597274D02*
X17070444Y-11587750D01*
X17070444Y-11587750D02*
X17032348Y-11587750D01*
X17032348Y-11587750D02*
X17013301Y-11597274D01*
X17099015Y-11711560D02*
X17079967Y-11721084D01*
X17079967Y-11721084D02*
X17032348Y-11721084D01*
X17032348Y-11721084D02*
X17013301Y-11711560D01*
X17013301Y-11711560D02*
X17003777Y-11692512D01*
X17003777Y-11692512D02*
X17003777Y-11673465D01*
X17003777Y-11673465D02*
X17013301Y-11654417D01*
X17013301Y-11654417D02*
X17032348Y-11644893D01*
X17032348Y-11644893D02*
X17079967Y-11644893D01*
X17079967Y-11644893D02*
X17099015Y-11635369D01*
X17194253Y-11587750D02*
X17194253Y-11787750D01*
X17194253Y-11597274D02*
X17213301Y-11587750D01*
X17213301Y-11587750D02*
X17251396Y-11587750D01*
X17251396Y-11587750D02*
X17270444Y-11597274D01*
X17270444Y-11597274D02*
X17279967Y-11606798D01*
X17279967Y-11606798D02*
X17289491Y-11625846D01*
X17289491Y-11625846D02*
X17289491Y-11682988D01*
X17289491Y-11682988D02*
X17279967Y-11702036D01*
X17279967Y-11702036D02*
X17270444Y-11711560D01*
X17270444Y-11711560D02*
X17251396Y-11721084D01*
X17251396Y-11721084D02*
X17213301Y-11721084D01*
X17213301Y-11721084D02*
X17194253Y-11711560D01*
X17375205Y-11702036D02*
X17384729Y-11711560D01*
X17384729Y-11711560D02*
X17375205Y-11721084D01*
X17375205Y-11721084D02*
X17365682Y-11711560D01*
X17365682Y-11711560D02*
X17375205Y-11702036D01*
X17375205Y-11702036D02*
X17375205Y-11721084D01*
X17375205Y-11597274D02*
X17384729Y-11606798D01*
X17384729Y-11606798D02*
X17375205Y-11616322D01*
X17375205Y-11616322D02*
X17365682Y-11606798D01*
X17365682Y-11606798D02*
X17375205Y-11597274D01*
X17375205Y-11597274D02*
X17375205Y-11616322D01*
M02*
