M48
; DRILL file {KiCad 8.0.3} date 2024-06-22T11:38:49+0200
; FORMAT={-:-/ absolute / metric / decimal}
; #@! TF.CreationDate,2024-06-22T11:38:49+02:00
; #@! TF.GenerationSoftware,Kicad,Pcbnew,8.0.3
; #@! TF.FileFunction,Plated,1,2,PTH
FMAT,2
METRIC
; #@! TA.AperFunction,Plated,PTH,ViaDrill
T1C0.400
; #@! TA.AperFunction,Plated,PTH,ComponentDrill
T2C0.800
%
G90
G05
T1
X164.084Y-105.41
X166.116Y-105.41
X168.148Y-105.41
X170.18Y-105.41
X172.212Y-105.41
X174.373Y-105.375
X176.784Y-104.925
X179.07Y-103.505
X180.34Y-108.585
X180.714Y-101.339
X180.831Y-103.124
X181.88Y-103.899
X183.134Y-100.584
X183.388Y-108.599
X183.555Y-102.127
X184.778Y-103.097
X185.569Y-108.626
X185.674Y-99.568
X186.328Y-102.828
X187.412Y-103.01
X189.858Y-108.645
X189.865Y-103.553
X192.13Y-108.03
X192.653Y-103.495
X193.143Y-108.306
X194.342Y-103.495
X197.358Y-108.458
X197.822Y-103.445
X198.499Y-106.579
X200.66Y-103.16
X200.66Y-105.61
X203.2Y-103.505
X203.53Y-105.826
X204.851Y-102.315
X207.853Y-103.932
X212.902Y-108.65
X220.205Y-108.585
X222.999Y-108.585
X226.822Y-104.902
X228.587Y-103.367
X229.121Y-106.759
X231.14Y-103.378
X231.648Y-104.902
X232.905Y-108.585
X233.68Y-103.505
X233.934Y-104.902
X234.76Y-106.49
X235.615Y-108.442
X236.773Y-108.38
X236.795Y-107.001
X236.855Y-100.965
X236.855Y-104.14
X241.3Y-101.6
X243.78Y-101.646
X247.015Y-104.257
X249.555Y-103.365
X252.095Y-104.14
X254.12Y-103.625
T2
X215.138Y-104.14
X217.638Y-104.14
M30
