G04 #@! TF.GenerationSoftware,KiCad,Pcbnew,8.0.3*
G04 #@! TF.CreationDate,2024-06-22T11:38:29+02:00*
G04 #@! TF.ProjectId,z502rc2014,7a353032-7263-4323-9031-342e6b696361,rev?*
G04 #@! TF.SameCoordinates,Original*
G04 #@! TF.FileFunction,Copper,L2,Bot*
G04 #@! TF.FilePolarity,Positive*
%FSLAX46Y46*%
G04 Gerber Fmt 4.6, Leading zero omitted, Abs format (unit mm)*
G04 Created by KiCad (PCBNEW 8.0.3) date 2024-06-22 11:38:29*
%MOMM*%
%LPD*%
G01*
G04 APERTURE LIST*
G04 #@! TA.AperFunction,ComponentPad*
%ADD10C,1.600000*%
G04 #@! TD*
G04 #@! TA.AperFunction,ConnectorPad*
%ADD11R,1.524000X4.500000*%
G04 #@! TD*
G04 #@! TA.AperFunction,ViaPad*
%ADD12C,0.800000*%
G04 #@! TD*
G04 #@! TA.AperFunction,Conductor*
%ADD13C,0.250000*%
G04 #@! TD*
G04 APERTURE END LIST*
D10*
X215138000Y-104140000D03*
X217638000Y-104140000D03*
D11*
X238500000Y-111500000D03*
X235960000Y-111500000D03*
X233420000Y-111500000D03*
X230880000Y-111500000D03*
X228340000Y-111500000D03*
X225800000Y-111500000D03*
X223260000Y-111500000D03*
X220720000Y-111500000D03*
X218180000Y-111500000D03*
X215640000Y-111500000D03*
X213100000Y-111500000D03*
X210560000Y-111500000D03*
X208020000Y-111500000D03*
X205480000Y-111500000D03*
X202940000Y-111500000D03*
X200400000Y-111500000D03*
X197860000Y-111500000D03*
X195320000Y-111500000D03*
X192780000Y-111500000D03*
X190240000Y-111500000D03*
X187700000Y-111500000D03*
X185160000Y-111500000D03*
X182620000Y-111500000D03*
X180080000Y-111500000D03*
X177540000Y-111500000D03*
X158598000Y-96520000D03*
X161138000Y-96520000D03*
X163678000Y-96520000D03*
X166218000Y-96520000D03*
X168758000Y-96520000D03*
X171298000Y-96520000D03*
X173838000Y-96520000D03*
X176378000Y-96520000D03*
X178918000Y-96520000D03*
X181458000Y-96520000D03*
X183998000Y-96520000D03*
X186538000Y-96520000D03*
X189078000Y-96520000D03*
X191618000Y-96520000D03*
X194158000Y-96520000D03*
X196698000Y-96520000D03*
X199238000Y-96520000D03*
X201778000Y-96520000D03*
X204318000Y-96520000D03*
X206858000Y-96520000D03*
X209398000Y-96520000D03*
X211938000Y-96520000D03*
X214478000Y-96520000D03*
X217018000Y-96520000D03*
X219558000Y-96520000D03*
X222098000Y-96520000D03*
X224638000Y-96520000D03*
X227178000Y-96520000D03*
X229718000Y-96520000D03*
X232258000Y-96520000D03*
X234798000Y-96520000D03*
X237338000Y-96520000D03*
X239878000Y-96520000D03*
X242418000Y-96520000D03*
X244958000Y-96520000D03*
X247498000Y-96520000D03*
X250038000Y-96520000D03*
X252578000Y-96520000D03*
X255118000Y-96520000D03*
X257658000Y-96520000D03*
D12*
X183388000Y-108599000D03*
X183555238Y-102127493D03*
X212902000Y-108649998D03*
X193142839Y-108305854D03*
X174373077Y-105375000D03*
X176784141Y-104925000D03*
X236855000Y-104140000D03*
X249555000Y-103365000D03*
X235615155Y-108441917D03*
X180713851Y-101338851D03*
X241300000Y-101600000D03*
X231140000Y-103378000D03*
X194342393Y-103495000D03*
X203529658Y-105825674D03*
X243780486Y-101645548D03*
X233680000Y-103505000D03*
X232905000Y-108585000D03*
X192652500Y-103495010D03*
X200660000Y-105610000D03*
X189865000Y-103553007D03*
X231647996Y-104902004D03*
X226822000Y-104902000D03*
X204851025Y-102314997D03*
X197822284Y-103445000D03*
X247015000Y-104256623D03*
X233934000Y-104902000D03*
X220205000Y-108585000D03*
X189857512Y-108645000D03*
X166116000Y-105410000D03*
X200660000Y-103160000D03*
X236855000Y-100964996D03*
X228586600Y-103367064D03*
X229121000Y-106758531D03*
X183134000Y-100583996D03*
X184778012Y-103096751D03*
X198499456Y-106578862D03*
X168148000Y-105410000D03*
X180340000Y-108585000D03*
X180831252Y-103124000D03*
X234760078Y-106490078D03*
X179070000Y-103505000D03*
X197358000Y-108458000D03*
X254119992Y-103624992D03*
X236773491Y-108379597D03*
X252095000Y-104140000D03*
X181880212Y-103899000D03*
X222999000Y-108585000D03*
X164084000Y-105410000D03*
X185674000Y-99568000D03*
X187411992Y-103010000D03*
X207852502Y-103932498D03*
X203200000Y-103505000D03*
X236794814Y-107000814D03*
X172212000Y-105410000D03*
X192129843Y-108029548D03*
X170180000Y-105410000D03*
X185568508Y-108626492D03*
X186328012Y-102828358D03*
D13*
X231861922Y-106490078D02*
X234760078Y-106490078D01*
X228340000Y-111500000D02*
X228340000Y-110012000D01*
X228340000Y-110012000D02*
X231861922Y-106490078D01*
X235960242Y-107000814D02*
X236794814Y-107000814D01*
X235101056Y-107860000D02*
X235960242Y-107000814D01*
X231865000Y-107860000D02*
X235101056Y-107860000D01*
X230880000Y-108845000D02*
X231865000Y-107860000D01*
X230880000Y-111500000D02*
X230880000Y-108845000D01*
X235960000Y-108786762D02*
X235615155Y-108441917D01*
X235960000Y-111500000D02*
X235960000Y-108786762D01*
X250190000Y-106045000D02*
X252095000Y-104140000D01*
X239395000Y-106045000D02*
X250190000Y-106045000D01*
X237060403Y-108379597D02*
X239395000Y-106045000D01*
X236773491Y-108379597D02*
X237060403Y-108379597D01*
X246369623Y-104902000D02*
X233934000Y-104902000D01*
X247015000Y-104256623D02*
X246369623Y-104902000D01*
X234605800Y-102579200D02*
X233680000Y-103505000D01*
X242846834Y-102579200D02*
X234605800Y-102579200D01*
X243780486Y-101645548D02*
X242846834Y-102579200D01*
X231647992Y-104902000D02*
X231647996Y-104902004D01*
X226822000Y-104902000D02*
X231647992Y-104902000D01*
X232778000Y-101740000D02*
X231140000Y-103378000D01*
X241160000Y-101740000D02*
X232778000Y-101740000D01*
X241300000Y-101600000D02*
X241160000Y-101740000D01*
X229053469Y-106758531D02*
X229121000Y-106758531D01*
X225800000Y-110012000D02*
X229053469Y-106758531D01*
X225800000Y-111500000D02*
X225800000Y-110012000D01*
X198133000Y-108136984D02*
X198133000Y-111227000D01*
X191899416Y-105720000D02*
X192925793Y-105720000D01*
X191359416Y-105180000D02*
X191899416Y-105720000D01*
X186904580Y-104235000D02*
X187364200Y-104235000D01*
X185200184Y-104083000D02*
X185327184Y-104210000D01*
X198133000Y-111227000D02*
X197860000Y-111500000D01*
X182064212Y-104083000D02*
X185200184Y-104083000D01*
X181880212Y-103899000D02*
X182064212Y-104083000D01*
X192925793Y-105720000D02*
X194888793Y-107683000D01*
X195027397Y-108458000D02*
X197358000Y-108458000D01*
X185327184Y-104210000D02*
X186879580Y-104210000D01*
X192799397Y-106230000D02*
X195027397Y-108458000D01*
X187364200Y-104235000D02*
X188309200Y-105180000D01*
X188122804Y-105630000D02*
X191173020Y-105630000D01*
X191173020Y-105630000D02*
X191773020Y-106230000D01*
X186718184Y-104685000D02*
X187177804Y-104685000D01*
X185013788Y-104533000D02*
X185140788Y-104660000D01*
X194888793Y-107683000D02*
X197679016Y-107683000D01*
X182342228Y-104533000D02*
X185013788Y-104533000D01*
X185140788Y-104660000D02*
X186693184Y-104660000D01*
X182201228Y-104674000D02*
X182342228Y-104533000D01*
X197679016Y-107683000D02*
X198133000Y-108136984D01*
X180239000Y-104674000D02*
X182201228Y-104674000D01*
X179070000Y-103505000D02*
X180239000Y-104674000D01*
X188309200Y-105180000D02*
X191359416Y-105180000D01*
X187177804Y-104685000D02*
X188122804Y-105630000D01*
X186879580Y-104210000D02*
X186904580Y-104235000D01*
X186693184Y-104660000D02*
X186718184Y-104685000D01*
X191773020Y-106230000D02*
X192799397Y-106230000D01*
X183388000Y-110732000D02*
X183388000Y-108599000D01*
X187700000Y-109661968D02*
X187700000Y-111500000D01*
X185873032Y-107835000D02*
X187700000Y-109661968D01*
X183861016Y-107835000D02*
X185873032Y-107835000D01*
X183709016Y-107683000D02*
X183861016Y-107835000D01*
X183647000Y-107683000D02*
X183709016Y-107683000D01*
X183506000Y-107824000D02*
X183647000Y-107683000D01*
X182925984Y-107824000D02*
X183506000Y-107824000D01*
X182914984Y-107835000D02*
X182925984Y-107824000D01*
X179993984Y-107835000D02*
X182914984Y-107835000D01*
X179878984Y-107950000D02*
X179993984Y-107835000D01*
X166624000Y-107950000D02*
X179878984Y-107950000D01*
X164084000Y-105410000D02*
X166624000Y-107950000D01*
X168206000Y-107500000D02*
X166116000Y-105410000D01*
X179692588Y-107500000D02*
X168206000Y-107500000D01*
X179807588Y-107385000D02*
X179692588Y-107500000D01*
X182728588Y-107385000D02*
X179807588Y-107385000D01*
X182739588Y-107374000D02*
X182728588Y-107385000D01*
X183319604Y-107374000D02*
X182739588Y-107374000D01*
X183460604Y-107233000D02*
X183319604Y-107374000D01*
X183895412Y-107233000D02*
X183460604Y-107233000D01*
X184047412Y-107385000D02*
X183895412Y-107233000D01*
X186059428Y-107385000D02*
X184047412Y-107385000D01*
X187319428Y-108645000D02*
X186059428Y-107385000D01*
X189857512Y-108645000D02*
X187319428Y-108645000D01*
X169788000Y-107050000D02*
X168148000Y-105410000D01*
X179506192Y-107050000D02*
X169788000Y-107050000D01*
X179632192Y-106924000D02*
X179506192Y-107050000D01*
X183133208Y-106924000D02*
X179632192Y-106924000D01*
X183274208Y-106783000D02*
X183133208Y-106924000D01*
X184081808Y-106783000D02*
X183274208Y-106783000D01*
X184233808Y-106935000D02*
X184081808Y-106783000D01*
X186245824Y-106935000D02*
X184233808Y-106935000D01*
X187190824Y-107880000D02*
X186245824Y-106935000D01*
X190241040Y-107880000D02*
X187190824Y-107880000D01*
X190786520Y-108425480D02*
X190241040Y-107880000D01*
X190786520Y-110953480D02*
X190786520Y-108425480D01*
X190240000Y-111500000D02*
X190786520Y-110953480D01*
X171370000Y-106600000D02*
X170180000Y-105410000D01*
X179319796Y-106600000D02*
X171370000Y-106600000D01*
X179445796Y-106474000D02*
X179319796Y-106600000D01*
X182946812Y-106474000D02*
X179445796Y-106474000D01*
X183087812Y-106333000D02*
X182946812Y-106474000D01*
X184268204Y-106333000D02*
X183087812Y-106333000D01*
X184420204Y-106485000D02*
X184268204Y-106333000D01*
X186432220Y-106485000D02*
X184420204Y-106485000D01*
X187377220Y-107430000D02*
X186432220Y-106485000D01*
X190427436Y-107430000D02*
X187377220Y-107430000D01*
X192780000Y-109782564D02*
X190427436Y-107430000D01*
X192780000Y-111500000D02*
X192780000Y-109782564D01*
X172952000Y-106150000D02*
X172212000Y-105410000D01*
X179259400Y-106024000D02*
X179133400Y-106150000D01*
X182760416Y-106024000D02*
X179259400Y-106024000D01*
X182901416Y-105883000D02*
X182760416Y-106024000D01*
X184454600Y-105883000D02*
X182901416Y-105883000D01*
X184606600Y-106035000D02*
X184454600Y-105883000D01*
X186618616Y-106035000D02*
X184606600Y-106035000D01*
X187563616Y-106980000D02*
X186618616Y-106035000D01*
X190613832Y-106980000D02*
X187563616Y-106980000D01*
X191663380Y-108029548D02*
X190613832Y-106980000D01*
X192129843Y-108029548D02*
X191663380Y-108029548D01*
X174698077Y-105700000D02*
X174373077Y-105375000D01*
X178947004Y-105700000D02*
X174698077Y-105700000D01*
X179073004Y-105574000D02*
X178947004Y-105700000D01*
X182715020Y-105433000D02*
X182574020Y-105574000D01*
X184640996Y-105433000D02*
X182715020Y-105433000D01*
X184792996Y-105585000D02*
X184640996Y-105433000D01*
X186805012Y-105585000D02*
X184792996Y-105585000D01*
X187750012Y-106530000D02*
X186805012Y-105585000D01*
X190800228Y-106530000D02*
X187750012Y-106530000D01*
X176983141Y-105124000D02*
X176784141Y-104925000D01*
X182528624Y-104983000D02*
X182387624Y-105124000D01*
X182387624Y-105124000D02*
X176983141Y-105124000D01*
X184954392Y-105110000D02*
X184827392Y-104983000D01*
X186506788Y-105110000D02*
X184954392Y-105110000D01*
X184827392Y-104983000D02*
X182528624Y-104983000D01*
X186991408Y-105135000D02*
X186531788Y-105135000D01*
X186531788Y-105135000D02*
X186506788Y-105110000D01*
X190986624Y-106080000D02*
X187936408Y-106080000D01*
X187936408Y-106080000D02*
X186991408Y-105135000D01*
X191586624Y-106680000D02*
X190986624Y-106080000D01*
X195320000Y-109386999D02*
X192613001Y-106680000D01*
X195320000Y-111500000D02*
X195320000Y-109386999D01*
X193142839Y-108305854D02*
X193142839Y-107846234D01*
X192471605Y-107175000D02*
X191445228Y-107175000D01*
X184982747Y-101796000D02*
X183654747Y-103124000D01*
X204318000Y-98008000D02*
X200530000Y-101796000D01*
X204318000Y-96520000D02*
X204318000Y-98008000D01*
X192613001Y-106680000D02*
X191586624Y-106680000D01*
X193142839Y-107846234D02*
X192471605Y-107175000D01*
X179133400Y-106150000D02*
X172952000Y-106150000D01*
X191445228Y-107175000D02*
X190800228Y-106530000D01*
X182574020Y-105574000D02*
X179073004Y-105574000D01*
X182620000Y-111500000D02*
X183388000Y-110732000D01*
X183654747Y-103124000D02*
X180831252Y-103124000D01*
X200530000Y-101796000D02*
X184982747Y-101796000D01*
X183387990Y-100330006D02*
X183134000Y-100583996D01*
X196698000Y-98008000D02*
X194375994Y-100330006D01*
X202451020Y-101539996D02*
X201745016Y-102246000D01*
X201745016Y-102246000D02*
X186910370Y-102246000D01*
X208406004Y-101539996D02*
X202451020Y-101539996D01*
X211938000Y-96520000D02*
X211938000Y-98008000D01*
X196698000Y-96520000D02*
X196698000Y-98008000D01*
X186950976Y-103645000D02*
X185326261Y-103645000D01*
X188495596Y-104730000D02*
X187550596Y-103785000D01*
X187090976Y-103785000D02*
X186950976Y-103645000D01*
X191545812Y-104730000D02*
X188495596Y-104730000D01*
X193112189Y-105270000D02*
X192085812Y-105270000D01*
X192085812Y-105270000D02*
X191545812Y-104730000D01*
X194061171Y-106218982D02*
X193112189Y-105270000D01*
X198139576Y-106218982D02*
X194061171Y-106218982D01*
X198499456Y-106578862D02*
X198139576Y-106218982D01*
X184336731Y-101346000D02*
X183555238Y-102127493D01*
X198440000Y-101346000D02*
X184336731Y-101346000D01*
X201778000Y-96520000D02*
X201778000Y-98008000D01*
X183475165Y-101338851D02*
X180713851Y-101338851D01*
X184021016Y-100793000D02*
X183475165Y-101338851D01*
X185326261Y-103645000D02*
X184778012Y-103096751D01*
X199238000Y-98008000D02*
X196453000Y-100793000D01*
X199238000Y-96520000D02*
X199238000Y-98008000D01*
X201778000Y-98008000D02*
X198440000Y-101346000D01*
X187550596Y-103785000D02*
X187090976Y-103785000D01*
X194375994Y-100330006D02*
X183387990Y-100330006D01*
X211938000Y-98008000D02*
X208406004Y-101539996D01*
X186910370Y-102246000D02*
X186328012Y-102828358D01*
X196453000Y-100793000D02*
X184021016Y-100793000D01*
X194158000Y-98008000D02*
X192598000Y-99568000D01*
X194158000Y-96520000D02*
X194158000Y-98008000D01*
X192598000Y-99568000D02*
X185674000Y-99568000D01*
X210560000Y-103372000D02*
X210560000Y-111500000D01*
X204851025Y-102314997D02*
X209502997Y-102314997D01*
X209502997Y-102314997D02*
X210560000Y-103372000D01*
X195228409Y-104835000D02*
X201181016Y-104835000D01*
X194663409Y-104270000D02*
X195228409Y-104835000D01*
X202946000Y-106599984D02*
X202946000Y-111494000D01*
X193246387Y-103495010D02*
X194021377Y-104270000D01*
X194021377Y-104270000D02*
X194663409Y-104270000D01*
X202946000Y-111494000D02*
X202940000Y-111500000D01*
X192652500Y-103495010D02*
X193246387Y-103495010D01*
X201181016Y-104835000D02*
X202946000Y-106599984D01*
X206558119Y-104000000D02*
X208020000Y-105461881D01*
X208020000Y-105461881D02*
X208020000Y-111500000D01*
X203521015Y-104280001D02*
X203801016Y-104000000D01*
X203801016Y-104000000D02*
X206558119Y-104000000D01*
X201415204Y-103160000D02*
X202535205Y-104280001D01*
X202535205Y-104280001D02*
X203521015Y-104280001D01*
X200660000Y-103160000D02*
X201415204Y-103160000D01*
X205480000Y-106680000D02*
X205480000Y-111500000D01*
X201553808Y-103935000D02*
X202348809Y-104730001D01*
X202348809Y-104730001D02*
X203530001Y-104730001D01*
X198312284Y-103935000D02*
X201553808Y-103935000D01*
X203530001Y-104730001D02*
X205480000Y-106680000D01*
X202973984Y-105270000D02*
X203529658Y-105825674D01*
X197822284Y-103445000D02*
X198312284Y-103935000D01*
X202252412Y-105270000D02*
X202973984Y-105270000D01*
X201367413Y-104385001D02*
X202252412Y-105270000D01*
X196856980Y-103505000D02*
X197736981Y-104385001D01*
X197736981Y-104385001D02*
X201367413Y-104385001D01*
X194342393Y-103495000D02*
X194352393Y-103505000D01*
X194352393Y-103505000D02*
X196856980Y-103505000D01*
X199390000Y-106045000D02*
X199390000Y-107315000D01*
X223260000Y-108846000D02*
X222999000Y-108585000D01*
X223260000Y-111500000D02*
X223260000Y-108846000D01*
X217638000Y-110958000D02*
X218180000Y-111500000D01*
X217638000Y-104140000D02*
X217638000Y-110958000D01*
X217018000Y-103520000D02*
X217638000Y-104140000D01*
X217018000Y-96520000D02*
X217018000Y-103520000D01*
X215138000Y-110998000D02*
X215640000Y-111500000D01*
X215138000Y-104140000D02*
X215138000Y-110998000D01*
X214478000Y-103480000D02*
X215138000Y-104140000D01*
X214478000Y-96520000D02*
X214478000Y-103480000D01*
X213100000Y-108847998D02*
X213100000Y-111500000D01*
X212902000Y-108649998D02*
X213100000Y-108847998D01*
X214478000Y-96520000D02*
X215138000Y-97180000D01*
X249555000Y-103365000D02*
X249438377Y-103481623D01*
X237513377Y-103481623D02*
X236855000Y-104140000D01*
X249438377Y-103481623D02*
X237513377Y-103481623D01*
X233420000Y-111500000D02*
X233420000Y-109100000D01*
X233420000Y-109100000D02*
X232905000Y-108585000D01*
X200335001Y-105285001D02*
X194399982Y-105285001D01*
X193484981Y-104370000D02*
X192458604Y-104370000D01*
X200660000Y-105610000D02*
X200335001Y-105285001D01*
X191641611Y-103553007D02*
X189865000Y-103553007D01*
X194399982Y-105285001D02*
X193484981Y-104370000D01*
X192458604Y-104370000D02*
X191641611Y-103553007D01*
X220720000Y-109100000D02*
X220205000Y-108585000D01*
X220720000Y-111500000D02*
X220720000Y-109100000D01*
X230988664Y-100965000D02*
X236854996Y-100965000D01*
X228586600Y-103367064D02*
X230988664Y-100965000D01*
X236854996Y-100965000D02*
X236855000Y-100964996D01*
X180080000Y-111500000D02*
X180080000Y-108845000D01*
X180080000Y-108845000D02*
X180340000Y-108585000D01*
X254119992Y-103624992D02*
X246244984Y-111500000D01*
X246244984Y-111500000D02*
X238500000Y-111500000D01*
X188681992Y-104280000D02*
X187411992Y-103010000D01*
X200400000Y-108325000D02*
X199390000Y-107315000D01*
X200400000Y-111500000D02*
X200400000Y-108325000D01*
X194247567Y-105768982D02*
X193298585Y-104820000D01*
X199113982Y-105768982D02*
X194247567Y-105768982D01*
X193298585Y-104820000D02*
X192272208Y-104820000D01*
X191732208Y-104280000D02*
X188681992Y-104280000D01*
X199390000Y-106045000D02*
X199113982Y-105768982D01*
X192272208Y-104820000D02*
X191732208Y-104280000D01*
X203200000Y-103505000D02*
X207425004Y-103505000D01*
X207425004Y-103505000D02*
X207852502Y-103932498D01*
X185160000Y-109035000D02*
X185568508Y-108626492D01*
X185160000Y-111500000D02*
X185160000Y-109035000D01*
M02*
