G04 #@! TF.GenerationSoftware,KiCad,Pcbnew,8.0.3*
G04 #@! TF.CreationDate,2024-06-22T11:38:29+02:00*
G04 #@! TF.ProjectId,z502rc2014,7a353032-7263-4323-9031-342e6b696361,rev?*
G04 #@! TF.SameCoordinates,Original*
G04 #@! TF.FileFunction,Soldermask,Bot*
G04 #@! TF.FilePolarity,Negative*
%FSLAX46Y46*%
G04 Gerber Fmt 4.6, Leading zero omitted, Abs format (unit mm)*
G04 Created by KiCad (PCBNEW 8.0.3) date 2024-06-22 11:38:29*
%MOMM*%
%LPD*%
G01*
G04 APERTURE LIST*
%ADD10C,1.600000*%
%ADD11R,1.524000X4.500000*%
G04 APERTURE END LIST*
D10*
X215138000Y-104140000D03*
X217638000Y-104140000D03*
D11*
X238500000Y-111500000D03*
X235960000Y-111500000D03*
X233420000Y-111500000D03*
X230880000Y-111500000D03*
X228340000Y-111500000D03*
X225800000Y-111500000D03*
X223260000Y-111500000D03*
X220720000Y-111500000D03*
X218180000Y-111500000D03*
X215640000Y-111500000D03*
X213100000Y-111500000D03*
X210560000Y-111500000D03*
X208020000Y-111500000D03*
X205480000Y-111500000D03*
X202940000Y-111500000D03*
X200400000Y-111500000D03*
X197860000Y-111500000D03*
X195320000Y-111500000D03*
X192780000Y-111500000D03*
X190240000Y-111500000D03*
X187700000Y-111500000D03*
X185160000Y-111500000D03*
X182620000Y-111500000D03*
X180080000Y-111500000D03*
X177540000Y-111500000D03*
X158598000Y-96520000D03*
X161138000Y-96520000D03*
X163678000Y-96520000D03*
X166218000Y-96520000D03*
X168758000Y-96520000D03*
X171298000Y-96520000D03*
X173838000Y-96520000D03*
X176378000Y-96520000D03*
X178918000Y-96520000D03*
X181458000Y-96520000D03*
X183998000Y-96520000D03*
X186538000Y-96520000D03*
X189078000Y-96520000D03*
X191618000Y-96520000D03*
X194158000Y-96520000D03*
X196698000Y-96520000D03*
X199238000Y-96520000D03*
X201778000Y-96520000D03*
X204318000Y-96520000D03*
X206858000Y-96520000D03*
X209398000Y-96520000D03*
X211938000Y-96520000D03*
X214478000Y-96520000D03*
X217018000Y-96520000D03*
X219558000Y-96520000D03*
X222098000Y-96520000D03*
X224638000Y-96520000D03*
X227178000Y-96520000D03*
X229718000Y-96520000D03*
X232258000Y-96520000D03*
X234798000Y-96520000D03*
X237338000Y-96520000D03*
X239878000Y-96520000D03*
X242418000Y-96520000D03*
X244958000Y-96520000D03*
X247498000Y-96520000D03*
X250038000Y-96520000D03*
X252578000Y-96520000D03*
X255118000Y-96520000D03*
X257658000Y-96520000D03*
M02*
