G04 #@! TF.GenerationSoftware,KiCad,Pcbnew,(6.0.6)*
G04 #@! TF.CreationDate,2022-12-03T11:10:18+01:00*
G04 #@! TF.ProjectId,z50-7segment,7a35302d-3773-4656-976d-656e742e6b69,rev?*
G04 #@! TF.SameCoordinates,Original*
G04 #@! TF.FileFunction,Soldermask,Top*
G04 #@! TF.FilePolarity,Negative*
%FSLAX46Y46*%
G04 Gerber Fmt 4.6, Leading zero omitted, Abs format (unit mm)*
G04 Created by KiCad (PCBNEW (6.0.6)) date 2022-12-03 11:10:18*
%MOMM*%
%LPD*%
G01*
G04 APERTURE LIST*
%ADD10C,1.600000*%
%ADD11R,2.400000X1.600000*%
%ADD12O,2.400000X1.600000*%
%ADD13R,1.600000X2.400000*%
%ADD14O,1.600000X2.400000*%
%ADD15R,1.700000X1.700000*%
%ADD16C,1.700000*%
%ADD17R,1.600000X1.600000*%
%ADD18O,1.600000X1.600000*%
%ADD19O,1.700000X1.700000*%
G04 APERTURE END LIST*
D10*
X178200000Y-73600000D03*
X175700000Y-73600000D03*
D11*
X173130000Y-76952000D03*
D12*
X173130000Y-79492000D03*
X173130000Y-82032000D03*
X173130000Y-84572000D03*
X173130000Y-87112000D03*
X173130000Y-89652000D03*
X173130000Y-92192000D03*
X173130000Y-94732000D03*
X180750000Y-94732000D03*
X180750000Y-92192000D03*
X180750000Y-89652000D03*
X180750000Y-87112000D03*
X180750000Y-84572000D03*
X180750000Y-82032000D03*
X180750000Y-79492000D03*
X180750000Y-76952000D03*
D13*
X157830000Y-108702000D03*
D14*
X160370000Y-108702000D03*
X162910000Y-108702000D03*
X165450000Y-108702000D03*
X167990000Y-108702000D03*
X170530000Y-108702000D03*
X173070000Y-108702000D03*
X175610000Y-108702000D03*
X178150000Y-108702000D03*
X180690000Y-108702000D03*
X180690000Y-101082000D03*
X178150000Y-101082000D03*
X175610000Y-101082000D03*
X173070000Y-101082000D03*
X170530000Y-101082000D03*
X167990000Y-101082000D03*
X165450000Y-101082000D03*
X162910000Y-101082000D03*
X160370000Y-101082000D03*
X157830000Y-101082000D03*
D15*
X140716000Y-73660000D03*
D16*
X140716000Y-76200000D03*
X140716000Y-78740000D03*
X140716000Y-81280000D03*
X140716000Y-83820000D03*
X148336000Y-83820000D03*
X148336000Y-81280000D03*
X148336000Y-78740000D03*
X148336000Y-76200000D03*
X148336000Y-73660000D03*
D10*
X154475000Y-103825000D03*
X154475000Y-106325000D03*
X135128000Y-93452000D03*
X135128000Y-90952000D03*
D17*
X185928000Y-113538000D03*
D18*
X185928000Y-110998000D03*
X185928000Y-108458000D03*
X185928000Y-105918000D03*
X185928000Y-103378000D03*
X185928000Y-100838000D03*
X185928000Y-98298000D03*
X185928000Y-95758000D03*
X185928000Y-93218000D03*
D15*
X180480000Y-113710000D03*
D19*
X180480000Y-116250000D03*
X177940000Y-113710000D03*
X177940000Y-116250000D03*
X175400000Y-113710000D03*
X175400000Y-116250000D03*
X172860000Y-113710000D03*
X172860000Y-116250000D03*
X170320000Y-113710000D03*
X170320000Y-116250000D03*
X167780000Y-113710000D03*
X167780000Y-116250000D03*
X165240000Y-113710000D03*
X165240000Y-116250000D03*
X162700000Y-113710000D03*
X162700000Y-116250000D03*
X160160000Y-113710000D03*
X160160000Y-116250000D03*
X157620000Y-113710000D03*
X157620000Y-116250000D03*
X155080000Y-113710000D03*
X155080000Y-116250000D03*
X152540000Y-113710000D03*
X152540000Y-116250000D03*
X150000000Y-113710000D03*
X150000000Y-116250000D03*
X147460000Y-113710000D03*
X147460000Y-116250000D03*
X144920000Y-113710000D03*
X144920000Y-116250000D03*
X142380000Y-113710000D03*
X142380000Y-116250000D03*
X139840000Y-113710000D03*
X139840000Y-116250000D03*
X137300000Y-113710000D03*
X137300000Y-116250000D03*
X134760000Y-113710000D03*
X134760000Y-116250000D03*
X132220000Y-113710000D03*
X132220000Y-116250000D03*
X129680000Y-113710000D03*
X129680000Y-116250000D03*
X127140000Y-113710000D03*
X127140000Y-116250000D03*
X124600000Y-113710000D03*
X124600000Y-116250000D03*
X122060000Y-113710000D03*
X122060000Y-116250000D03*
X119520000Y-113710000D03*
X119520000Y-116250000D03*
D13*
X119330000Y-108702000D03*
D14*
X121870000Y-108702000D03*
X124410000Y-108702000D03*
X126950000Y-108702000D03*
X129490000Y-108702000D03*
X132030000Y-108702000D03*
X134570000Y-108702000D03*
X134570000Y-101082000D03*
X132030000Y-101082000D03*
X129490000Y-101082000D03*
X126950000Y-101082000D03*
X124410000Y-101082000D03*
X121870000Y-101082000D03*
X119330000Y-101082000D03*
D10*
X124440000Y-73406000D03*
X121940000Y-73406000D03*
D18*
X197104000Y-93218000D03*
X197104000Y-95758000D03*
X197104000Y-98298000D03*
X197104000Y-100838000D03*
X197104000Y-103378000D03*
X197104000Y-105918000D03*
X197104000Y-108458000D03*
X197104000Y-110998000D03*
X189484000Y-110998000D03*
X189484000Y-108458000D03*
X189484000Y-105918000D03*
X189484000Y-103378000D03*
X189484000Y-100838000D03*
X189484000Y-98298000D03*
X189484000Y-95758000D03*
D17*
X189484000Y-93218000D03*
D13*
X138580000Y-96256000D03*
D14*
X141120000Y-96256000D03*
X143660000Y-96256000D03*
X146200000Y-96256000D03*
X148740000Y-96256000D03*
X151280000Y-96256000D03*
X153820000Y-96256000D03*
X156360000Y-96256000D03*
X158900000Y-96256000D03*
X161440000Y-96256000D03*
X161440000Y-88636000D03*
X158900000Y-88636000D03*
X156360000Y-88636000D03*
X153820000Y-88636000D03*
X151280000Y-88636000D03*
X148740000Y-88636000D03*
X146200000Y-88636000D03*
X143660000Y-88636000D03*
X141120000Y-88636000D03*
X138580000Y-88636000D03*
D10*
X115824000Y-103632000D03*
X115824000Y-106132000D03*
D11*
X119280000Y-76952000D03*
D12*
X119280000Y-79492000D03*
X119280000Y-82032000D03*
X119280000Y-84572000D03*
X119280000Y-87112000D03*
X119280000Y-89652000D03*
X119280000Y-92192000D03*
X119280000Y-94732000D03*
X126900000Y-94732000D03*
X126900000Y-92192000D03*
X126900000Y-89652000D03*
X126900000Y-87112000D03*
X126900000Y-84572000D03*
X126900000Y-82032000D03*
X126900000Y-79492000D03*
X126900000Y-76952000D03*
D15*
X151638000Y-73660000D03*
D16*
X151638000Y-76200000D03*
X151638000Y-78740000D03*
X151638000Y-81280000D03*
X151638000Y-83820000D03*
X159258000Y-83820000D03*
X159258000Y-81280000D03*
X159258000Y-78740000D03*
X159258000Y-76200000D03*
X159258000Y-73660000D03*
M02*
