G04 #@! TF.GenerationSoftware,KiCad,Pcbnew,(6.0.6)*
G04 #@! TF.CreationDate,2022-12-03T11:10:18+01:00*
G04 #@! TF.ProjectId,z50-7segment,7a35302d-3773-4656-976d-656e742e6b69,rev?*
G04 #@! TF.SameCoordinates,Original*
G04 #@! TF.FileFunction,Legend,Bot*
G04 #@! TF.FilePolarity,Positive*
%FSLAX46Y46*%
G04 Gerber Fmt 4.6, Leading zero omitted, Abs format (unit mm)*
G04 Created by KiCad (PCBNEW (6.0.6)) date 2022-12-03 11:10:18*
%MOMM*%
%LPD*%
G01*
G04 APERTURE LIST*
%ADD10C,0.200000*%
%ADD11C,1.600000*%
%ADD12R,2.400000X1.600000*%
%ADD13O,2.400000X1.600000*%
%ADD14R,1.600000X2.400000*%
%ADD15O,1.600000X2.400000*%
%ADD16R,1.700000X1.700000*%
%ADD17C,1.700000*%
%ADD18R,1.600000X1.600000*%
%ADD19O,1.600000X1.600000*%
%ADD20O,1.700000X1.700000*%
G04 APERTURE END LIST*
D10*
X155080190Y-110251142D02*
X155080190Y-110894000D01*
X155170666Y-111022571D01*
X155351619Y-111108285D01*
X155623047Y-111151142D01*
X155804000Y-111151142D01*
X153270666Y-111151142D02*
X154175428Y-111151142D01*
X154175428Y-110251142D01*
X151551619Y-111065428D02*
X151642095Y-111108285D01*
X151913523Y-111151142D01*
X152094476Y-111151142D01*
X152365904Y-111108285D01*
X152546857Y-111022571D01*
X152637333Y-110936857D01*
X152727809Y-110765428D01*
X152727809Y-110636857D01*
X152637333Y-110465428D01*
X152546857Y-110379714D01*
X152365904Y-110294000D01*
X152094476Y-110251142D01*
X151913523Y-110251142D01*
X151642095Y-110294000D01*
X151551619Y-110336857D01*
X150194476Y-110251142D02*
X150194476Y-110894000D01*
X150284952Y-111022571D01*
X150465904Y-111108285D01*
X150737333Y-111151142D01*
X150918285Y-111151142D01*
X148384952Y-111151142D02*
X149289714Y-111151142D01*
X149289714Y-110251142D01*
X146665904Y-111065428D02*
X146756380Y-111108285D01*
X147027809Y-111151142D01*
X147208761Y-111151142D01*
X147480190Y-111108285D01*
X147661142Y-111022571D01*
X147751619Y-110936857D01*
X147842095Y-110765428D01*
X147842095Y-110636857D01*
X147751619Y-110465428D01*
X147661142Y-110379714D01*
X147480190Y-110294000D01*
X147208761Y-110251142D01*
X147027809Y-110251142D01*
X146756380Y-110294000D01*
X146665904Y-110336857D01*
X145308761Y-110251142D02*
X145308761Y-110894000D01*
X145399238Y-111022571D01*
X145580190Y-111108285D01*
X145851619Y-111151142D01*
X146032571Y-111151142D01*
X143499238Y-111151142D02*
X144404000Y-111151142D01*
X144404000Y-110251142D01*
X141780190Y-111065428D02*
X141870666Y-111108285D01*
X142142095Y-111151142D01*
X142323047Y-111151142D01*
X142594476Y-111108285D01*
X142775428Y-111022571D01*
X142865904Y-110936857D01*
X142956380Y-110765428D01*
X142956380Y-110636857D01*
X142865904Y-110465428D01*
X142775428Y-110379714D01*
X142594476Y-110294000D01*
X142323047Y-110251142D01*
X142142095Y-110251142D01*
X141870666Y-110294000D01*
X141780190Y-110336857D01*
X140423047Y-110251142D02*
X140423047Y-110894000D01*
X140513523Y-111022571D01*
X140694476Y-111108285D01*
X140965904Y-111151142D01*
X141146857Y-111151142D01*
X138613523Y-111151142D02*
X139518285Y-111151142D01*
X139518285Y-110251142D01*
X136894476Y-111065428D02*
X136984952Y-111108285D01*
X137256380Y-111151142D01*
X137437333Y-111151142D01*
X137708761Y-111108285D01*
X137889714Y-111022571D01*
X137980190Y-110936857D01*
X138070666Y-110765428D01*
X138070666Y-110636857D01*
X137980190Y-110465428D01*
X137889714Y-110379714D01*
X137708761Y-110294000D01*
X137437333Y-110251142D01*
X137256380Y-110251142D01*
X136984952Y-110294000D01*
X136894476Y-110336857D01*
%LPC*%
D11*
X178200000Y-73600000D03*
X175700000Y-73600000D03*
D12*
X173130000Y-76952000D03*
D13*
X173130000Y-79492000D03*
X173130000Y-82032000D03*
X173130000Y-84572000D03*
X173130000Y-87112000D03*
X173130000Y-89652000D03*
X173130000Y-92192000D03*
X173130000Y-94732000D03*
X180750000Y-94732000D03*
X180750000Y-92192000D03*
X180750000Y-89652000D03*
X180750000Y-87112000D03*
X180750000Y-84572000D03*
X180750000Y-82032000D03*
X180750000Y-79492000D03*
X180750000Y-76952000D03*
D14*
X157830000Y-108702000D03*
D15*
X160370000Y-108702000D03*
X162910000Y-108702000D03*
X165450000Y-108702000D03*
X167990000Y-108702000D03*
X170530000Y-108702000D03*
X173070000Y-108702000D03*
X175610000Y-108702000D03*
X178150000Y-108702000D03*
X180690000Y-108702000D03*
X180690000Y-101082000D03*
X178150000Y-101082000D03*
X175610000Y-101082000D03*
X173070000Y-101082000D03*
X170530000Y-101082000D03*
X167990000Y-101082000D03*
X165450000Y-101082000D03*
X162910000Y-101082000D03*
X160370000Y-101082000D03*
X157830000Y-101082000D03*
D16*
X140716000Y-73660000D03*
D17*
X140716000Y-76200000D03*
X140716000Y-78740000D03*
X140716000Y-81280000D03*
X140716000Y-83820000D03*
X148336000Y-83820000D03*
X148336000Y-81280000D03*
X148336000Y-78740000D03*
X148336000Y-76200000D03*
X148336000Y-73660000D03*
D11*
X154475000Y-103825000D03*
X154475000Y-106325000D03*
X135128000Y-93452000D03*
X135128000Y-90952000D03*
D18*
X185928000Y-113538000D03*
D19*
X185928000Y-110998000D03*
X185928000Y-108458000D03*
X185928000Y-105918000D03*
X185928000Y-103378000D03*
X185928000Y-100838000D03*
X185928000Y-98298000D03*
X185928000Y-95758000D03*
X185928000Y-93218000D03*
D16*
X180480000Y-113710000D03*
D20*
X180480000Y-116250000D03*
X177940000Y-113710000D03*
X177940000Y-116250000D03*
X175400000Y-113710000D03*
X175400000Y-116250000D03*
X172860000Y-113710000D03*
X172860000Y-116250000D03*
X170320000Y-113710000D03*
X170320000Y-116250000D03*
X167780000Y-113710000D03*
X167780000Y-116250000D03*
X165240000Y-113710000D03*
X165240000Y-116250000D03*
X162700000Y-113710000D03*
X162700000Y-116250000D03*
X160160000Y-113710000D03*
X160160000Y-116250000D03*
X157620000Y-113710000D03*
X157620000Y-116250000D03*
X155080000Y-113710000D03*
X155080000Y-116250000D03*
X152540000Y-113710000D03*
X152540000Y-116250000D03*
X150000000Y-113710000D03*
X150000000Y-116250000D03*
X147460000Y-113710000D03*
X147460000Y-116250000D03*
X144920000Y-113710000D03*
X144920000Y-116250000D03*
X142380000Y-113710000D03*
X142380000Y-116250000D03*
X139840000Y-113710000D03*
X139840000Y-116250000D03*
X137300000Y-113710000D03*
X137300000Y-116250000D03*
X134760000Y-113710000D03*
X134760000Y-116250000D03*
X132220000Y-113710000D03*
X132220000Y-116250000D03*
X129680000Y-113710000D03*
X129680000Y-116250000D03*
X127140000Y-113710000D03*
X127140000Y-116250000D03*
X124600000Y-113710000D03*
X124600000Y-116250000D03*
X122060000Y-113710000D03*
X122060000Y-116250000D03*
X119520000Y-113710000D03*
X119520000Y-116250000D03*
D14*
X119330000Y-108702000D03*
D15*
X121870000Y-108702000D03*
X124410000Y-108702000D03*
X126950000Y-108702000D03*
X129490000Y-108702000D03*
X132030000Y-108702000D03*
X134570000Y-108702000D03*
X134570000Y-101082000D03*
X132030000Y-101082000D03*
X129490000Y-101082000D03*
X126950000Y-101082000D03*
X124410000Y-101082000D03*
X121870000Y-101082000D03*
X119330000Y-101082000D03*
D11*
X124440000Y-73406000D03*
X121940000Y-73406000D03*
D19*
X197104000Y-93218000D03*
X197104000Y-95758000D03*
X197104000Y-98298000D03*
X197104000Y-100838000D03*
X197104000Y-103378000D03*
X197104000Y-105918000D03*
X197104000Y-108458000D03*
X197104000Y-110998000D03*
X189484000Y-110998000D03*
X189484000Y-108458000D03*
X189484000Y-105918000D03*
X189484000Y-103378000D03*
X189484000Y-100838000D03*
X189484000Y-98298000D03*
X189484000Y-95758000D03*
D18*
X189484000Y-93218000D03*
D14*
X138580000Y-96256000D03*
D15*
X141120000Y-96256000D03*
X143660000Y-96256000D03*
X146200000Y-96256000D03*
X148740000Y-96256000D03*
X151280000Y-96256000D03*
X153820000Y-96256000D03*
X156360000Y-96256000D03*
X158900000Y-96256000D03*
X161440000Y-96256000D03*
X161440000Y-88636000D03*
X158900000Y-88636000D03*
X156360000Y-88636000D03*
X153820000Y-88636000D03*
X151280000Y-88636000D03*
X148740000Y-88636000D03*
X146200000Y-88636000D03*
X143660000Y-88636000D03*
X141120000Y-88636000D03*
X138580000Y-88636000D03*
D11*
X115824000Y-103632000D03*
X115824000Y-106132000D03*
D12*
X119280000Y-76952000D03*
D13*
X119280000Y-79492000D03*
X119280000Y-82032000D03*
X119280000Y-84572000D03*
X119280000Y-87112000D03*
X119280000Y-89652000D03*
X119280000Y-92192000D03*
X119280000Y-94732000D03*
X126900000Y-94732000D03*
X126900000Y-92192000D03*
X126900000Y-89652000D03*
X126900000Y-87112000D03*
X126900000Y-84572000D03*
X126900000Y-82032000D03*
X126900000Y-79492000D03*
X126900000Y-76952000D03*
D16*
X151638000Y-73660000D03*
D17*
X151638000Y-76200000D03*
X151638000Y-78740000D03*
X151638000Y-81280000D03*
X151638000Y-83820000D03*
X159258000Y-83820000D03*
X159258000Y-81280000D03*
X159258000Y-78740000D03*
X159258000Y-76200000D03*
X159258000Y-73660000D03*
M02*
