%FSLAX45Y45*%
G04 Gerber Fmt 4.5, Leading zero omitted, Abs format (unit mm)*
G04 Created by KiCad (PCBNEW (6.0.6)) date 2022-12-03 11:10:41*
%MOMM*%
%LPD*%
G01*
G04 APERTURE LIST*
%TA.AperFunction,Profile*%
%ADD10C,0.100000*%
%TD*%
%ADD11C,0.200000*%
G04 APERTURE END LIST*
D10*
X10000000Y-11700000D02*
G75*
G03*
X10300000Y-12000000I300000J0D01*
G01*
X10000000Y-7200000D02*
X10000000Y-11700000D01*
X19800000Y-7000000D02*
X10200000Y-7000000D01*
X10200000Y-7000000D02*
G75*
G03*
X10000000Y-7200000I0J-200000D01*
G01*
X20000000Y-11800000D02*
X20000000Y-7200000D01*
X19800000Y-12000000D02*
G75*
G03*
X20000000Y-11800000I0J200000D01*
G01*
X20000000Y-7200000D02*
G75*
G03*
X19800000Y-7000000I-200000J0D01*
G01*
X10300000Y-12000000D02*
X19800000Y-12000000D01*
D11*
X10252619Y-12315476D02*
X10252619Y-12115476D01*
X10300238Y-12115476D01*
X10328810Y-12125000D01*
X10347857Y-12144048D01*
X10357381Y-12163095D01*
X10366905Y-12201190D01*
X10366905Y-12229762D01*
X10357381Y-12267857D01*
X10347857Y-12286905D01*
X10328810Y-12305952D01*
X10300238Y-12315476D01*
X10252619Y-12315476D01*
X10452619Y-12315476D02*
X10452619Y-12182143D01*
X10452619Y-12220238D02*
X10462143Y-12201190D01*
X10471667Y-12191667D01*
X10490714Y-12182143D01*
X10509762Y-12182143D01*
X10576429Y-12315476D02*
X10576429Y-12182143D01*
X10576429Y-12115476D02*
X10566905Y-12125000D01*
X10576429Y-12134524D01*
X10585952Y-12125000D01*
X10576429Y-12115476D01*
X10576429Y-12134524D01*
X10700238Y-12315476D02*
X10681190Y-12305952D01*
X10671667Y-12286905D01*
X10671667Y-12115476D01*
X10805000Y-12315476D02*
X10785952Y-12305952D01*
X10776429Y-12286905D01*
X10776429Y-12115476D01*
X11033571Y-12315476D02*
X11033571Y-12115476D01*
X11100238Y-12258333D01*
X11166905Y-12115476D01*
X11166905Y-12315476D01*
X11347857Y-12315476D02*
X11347857Y-12210714D01*
X11338333Y-12191667D01*
X11319286Y-12182143D01*
X11281190Y-12182143D01*
X11262143Y-12191667D01*
X11347857Y-12305952D02*
X11328809Y-12315476D01*
X11281190Y-12315476D01*
X11262143Y-12305952D01*
X11252619Y-12286905D01*
X11252619Y-12267857D01*
X11262143Y-12248809D01*
X11281190Y-12239286D01*
X11328809Y-12239286D01*
X11347857Y-12229762D01*
X11443095Y-12182143D02*
X11443095Y-12382143D01*
X11443095Y-12191667D02*
X11462143Y-12182143D01*
X11500238Y-12182143D01*
X11519286Y-12191667D01*
X11528809Y-12201190D01*
X11538333Y-12220238D01*
X11538333Y-12277381D01*
X11528809Y-12296428D01*
X11519286Y-12305952D01*
X11500238Y-12315476D01*
X11462143Y-12315476D01*
X11443095Y-12305952D01*
X11624048Y-12296428D02*
X11633571Y-12305952D01*
X11624048Y-12315476D01*
X11614524Y-12305952D01*
X11624048Y-12296428D01*
X11624048Y-12315476D01*
X11624048Y-12191667D02*
X11633571Y-12201190D01*
X11624048Y-12210714D01*
X11614524Y-12201190D01*
X11624048Y-12191667D01*
X11624048Y-12210714D01*
M02*
