M48
; DRILL file {KiCad (6.0.6)} date Sat Dec  3 11:10:40 2022
; FORMAT={-:-/ absolute / metric / decimal}
; #@! TF.CreationDate,2022-12-03T11:10:40+01:00
; #@! TF.GenerationSoftware,Kicad,Pcbnew,(6.0.6)
; #@! TF.FileFunction,Plated,1,2,PTH
FMAT,2
METRIC
; #@! TA.AperFunction,Plated,PTH,ViaDrill
T1C0.400
; #@! TA.AperFunction,Plated,PTH,ComponentDrill
T2C0.800
; #@! TA.AperFunction,Plated,PTH,ComponentDrill
T3C1.000
%
G90
G05
T1
X122.95Y-77.125
X123.0Y-80.25
X123.293Y-81.426
X124.475Y-76.025
X126.873Y-73.406
X129.625Y-83.4
X130.703Y-84.544
X131.075Y-80.275
X131.075Y-94.9
X132.55Y-91.525
X133.06Y-86.386
X133.925Y-75.438
X135.128Y-76.454
X135.128Y-78.232
X135.6Y-79.575
X136.45Y-104.125
X136.8Y-77.275
X137.906Y-91.525
X138.5Y-108.975
X140.15Y-107.55
X141.425Y-93.025
X141.725Y-101.882
X142.975Y-99.9
X144.375Y-108.975
X146.15Y-114.95
X146.216Y-99.175
X147.45Y-109.45
X148.775Y-110.775
X148.8Y-91.975
X148.9Y-106.425
X150.117Y-91.251
X150.874Y-101.882
X151.4Y-93.9
X152.605Y-101.287
X153.4Y-109.925
X154.75Y-101.125
X155.675Y-99.4
X159.2Y-93.425
X161.25Y-99.025
X162.214Y-94.457
X165.71Y-111.557
X167.716Y-105.512
X169.25Y-75.19
X169.71Y-81.7
X169.926Y-112.3
X170.065Y-94.007
X170.225Y-91.95
X170.475Y-96.675
X170.79Y-80.1
X173.482Y-106.566
X174.325Y-111.95
X174.35Y-74.6
X175.438Y-111.401
X176.81Y-86.89
X177.986Y-80.597
X178.19Y-85.72
X178.378Y-104.418
X178.71Y-78.26
X178.74Y-84.28
X179.1Y-95.95
X180.7Y-111.5
T2
X115.824Y-103.632
X115.824Y-106.132
X119.28Y-76.952
X119.28Y-79.492
X119.28Y-82.032
X119.28Y-84.572
X119.28Y-87.112
X119.28Y-89.652
X119.28Y-92.192
X119.28Y-94.732
X119.33Y-101.082
X119.33Y-108.702
X121.87Y-101.082
X121.87Y-108.702
X121.94Y-73.406
X124.41Y-101.082
X124.41Y-108.702
X124.44Y-73.406
X126.9Y-76.952
X126.9Y-79.492
X126.9Y-82.032
X126.9Y-84.572
X126.9Y-87.112
X126.9Y-89.652
X126.9Y-92.192
X126.9Y-94.732
X126.95Y-101.082
X126.95Y-108.702
X129.49Y-101.082
X129.49Y-108.702
X132.03Y-101.082
X132.03Y-108.702
X134.57Y-101.082
X134.57Y-108.702
X135.128Y-90.952
X135.128Y-93.452
X138.58Y-88.636
X138.58Y-96.256
X141.12Y-88.636
X141.12Y-96.256
X143.66Y-88.636
X143.66Y-96.256
X146.2Y-88.636
X146.2Y-96.256
X148.74Y-88.636
X148.74Y-96.256
X151.28Y-88.636
X151.28Y-96.256
X153.82Y-88.636
X153.82Y-96.256
X154.475Y-103.825
X154.475Y-106.325
X156.36Y-88.636
X156.36Y-96.256
X157.83Y-101.082
X157.83Y-108.702
X158.9Y-88.636
X158.9Y-96.256
X160.37Y-101.082
X160.37Y-108.702
X161.44Y-88.636
X161.44Y-96.256
X162.91Y-101.082
X162.91Y-108.702
X165.45Y-101.082
X165.45Y-108.702
X167.99Y-101.082
X167.99Y-108.702
X170.53Y-101.082
X170.53Y-108.702
X173.07Y-101.082
X173.07Y-108.702
X173.13Y-76.952
X173.13Y-79.492
X173.13Y-82.032
X173.13Y-84.572
X173.13Y-87.112
X173.13Y-89.652
X173.13Y-92.192
X173.13Y-94.732
X175.61Y-101.082
X175.61Y-108.702
X175.7Y-73.6
X178.15Y-101.082
X178.15Y-108.702
X178.2Y-73.6
X180.69Y-101.082
X180.69Y-108.702
X180.75Y-76.952
X180.75Y-79.492
X180.75Y-82.032
X180.75Y-84.572
X180.75Y-87.112
X180.75Y-89.652
X180.75Y-92.192
X180.75Y-94.732
X185.928Y-93.218
X185.928Y-95.758
X185.928Y-98.298
X185.928Y-100.838
X185.928Y-103.378
X185.928Y-105.918
X185.928Y-108.458
X185.928Y-110.998
X185.928Y-113.538
X189.484Y-93.218
X189.484Y-95.758
X189.484Y-98.298
X189.484Y-100.838
X189.484Y-103.378
X189.484Y-105.918
X189.484Y-108.458
X189.484Y-110.998
X197.104Y-93.218
X197.104Y-95.758
X197.104Y-98.298
X197.104Y-100.838
X197.104Y-103.378
X197.104Y-105.918
X197.104Y-108.458
X197.104Y-110.998
T3
X119.52Y-113.71
X119.52Y-116.25
X122.06Y-113.71
X122.06Y-116.25
X124.6Y-113.71
X124.6Y-116.25
X127.14Y-113.71
X127.14Y-116.25
X129.68Y-113.71
X129.68Y-116.25
X132.22Y-113.71
X132.22Y-116.25
X134.76Y-113.71
X134.76Y-116.25
X137.3Y-113.71
X137.3Y-116.25
X139.84Y-113.71
X139.84Y-116.25
X140.716Y-73.66
X140.716Y-76.2
X140.716Y-78.74
X140.716Y-81.28
X140.716Y-83.82
X142.38Y-113.71
X142.38Y-116.25
X144.92Y-113.71
X144.92Y-116.25
X147.46Y-113.71
X147.46Y-116.25
X148.336Y-73.66
X148.336Y-76.2
X148.336Y-78.74
X148.336Y-81.28
X148.336Y-83.82
X150.0Y-113.71
X150.0Y-116.25
X151.638Y-73.66
X151.638Y-76.2
X151.638Y-78.74
X151.638Y-81.28
X151.638Y-83.82
X152.54Y-113.71
X152.54Y-116.25
X155.08Y-113.71
X155.08Y-116.25
X157.62Y-113.71
X157.62Y-116.25
X159.258Y-73.66
X159.258Y-76.2
X159.258Y-78.74
X159.258Y-81.28
X159.258Y-83.82
X160.16Y-113.71
X160.16Y-116.25
X162.7Y-113.71
X162.7Y-116.25
X165.24Y-113.71
X165.24Y-116.25
X167.78Y-113.71
X167.78Y-116.25
X170.32Y-113.71
X170.32Y-116.25
X172.86Y-113.71
X172.86Y-116.25
X175.4Y-113.71
X175.4Y-116.25
X177.94Y-113.71
X177.94Y-116.25
X180.48Y-113.71
X180.48Y-116.25
T0
M30
